<svg width="40" height="40" viewBox="0 0 40 40" fill="none" xmlns="http://www.w3.org/2000/svg">
<path d="M9.11667 8.6771L14.3343 5.41606C14.7559 5.15258 15.2731 5.09105 15.7447 5.24825L19.473 6.491C19.8151 6.60504 20.1849 6.60504 20.527 6.491L24.2553 5.24825C24.7269 5.09105 25.2441 5.15258 25.6657 5.41606L30.8833 8.6771C31.3706 8.98166 31.6667 9.51578 31.6667 10.0904V12.5C31.6667 13.0246 31.9137 13.5186 32.3333 13.8334L34.3333 15.3334C34.753 15.6481 35 16.1421 35 16.6667V21.6667C35 22.1913 34.753 22.6853 34.3333 23L32.3333 24.5C31.9137 24.8148 31.6667 25.3088 31.6667 25.8334V29.9096C31.6667 30.4843 31.3706 31.0184 30.8833 31.3229L25.6657 34.584C25.2441 34.8475 24.7269 34.909 24.2553 34.7518L20.527 33.509C20.1849 33.395 19.8151 33.395 19.473 33.509L15.7447 34.7518C15.2731 34.909 14.7559 34.8475 14.3343 34.584L9.11667 31.3229C8.62937 31.0184 8.33333 30.4843 8.33333 29.9096V25.8334C8.33333 25.3088 8.08634 24.8148 7.66667 24.5L5.66667 23C5.24699 22.6853 5 22.1913 5 21.6667V16.6667C5 16.1421 5.24699 15.6481 5.66667 15.3334L7.66667 13.8334C8.08634 13.5186 8.33333 13.0246 8.33333 12.5V10.0904C8.33333 9.51578 8.62936 8.98166 9.11667 8.6771Z" stroke="black" stroke-width="2" stroke-linecap="round" stroke-linejoin="round"/>
<path d="M20 7.5V12.643C20 13.085 20.1756 13.5089 20.4882 13.8215L25 18.3333M20 32.5V27.357C20 26.915 19.8244 26.4911 19.5118 26.1785L15 21.6667" stroke="#0454F2" stroke-width="2" stroke-linecap="round" stroke-linejoin="round"/>
<ellipse cx="15.0002" cy="21.6667" rx="1.66667" ry="1.66667" stroke="#0454F2" stroke-width="2" stroke-linecap="round" stroke-linejoin="round"/>
<ellipse cx="25.0002" cy="18.3333" rx="1.66667" ry="1.66667" stroke="#0454F2" stroke-width="2" stroke-linecap="round" stroke-linejoin="round"/>
</svg>
