<svg width="20" height="20" viewBox="0 0 20 20" fill="none" xmlns="http://www.w3.org/2000/svg">
<path d="M7.5 2.50008C7.5 2.03984 7.1269 1.66675 6.66667 1.66675C6.20643 1.66675 5.83333 2.03984 5.83333 2.50008V3.33341H3.33333C2.8731 3.33341 2.5 3.70651 2.5 4.16675V16.6667C2.5 17.127 2.8731 17.5001 3.33333 17.5001H9.16667C9.6269 17.5001 10 17.127 10 16.6667C10 16.2065 9.6269 15.8334 9.16667 15.8334H4.16667V8.33342H15.8333V9.16675C15.8333 9.62699 16.2064 10.0001 16.6667 10.0001C17.1269 10.0001 17.5 9.62699 17.5 9.16675V4.16675C17.5 3.70651 17.1269 3.33341 16.6667 3.33341H14.1667V2.50008C14.1667 2.03984 13.7936 1.66675 13.3333 1.66675C12.8731 1.66675 12.5 2.03984 12.5 2.50008V3.33341H7.5V2.50008Z" fill="#0454F2"/>
<path d="M15.8333 12.5001C15.8333 12.0398 15.4602 11.6667 15 11.6667C14.5398 11.6667 14.1667 12.0398 14.1667 12.5001V14.1667H12.5C12.0398 14.1667 11.6667 14.5398 11.6667 15.0001C11.6667 15.4603 12.0398 15.8334 12.5 15.8334H14.1667V17.5001C14.1667 17.9603 14.5398 18.3334 15 18.3334C15.4602 18.3334 15.8333 17.9603 15.8333 17.5001V15.8334H17.5C17.9602 15.8334 18.3333 15.4603 18.3333 15.0001C18.3333 14.5398 17.9602 14.1667 17.5 14.1667H15.8333V12.5001Z" fill="#0454F2"/>
</svg>
