<svg width="119" height="25" viewBox="0 0 119 25" fill="none" xmlns="http://www.w3.org/2000/svg">
<g clip-path="url(#clip0_56_1368)">
<path d="M43.3974 21.9461L39.3838 15.9935C39.2351 15.7734 39.1806 15.503 39.2323 15.2425C39.284 14.982 39.4377 14.7529 39.6592 14.6063C41.4975 13.3748 42.6507 11.1716 42.6507 8.63021C42.6507 4.27854 39.0099 0.835938 34.5239 0.835938H24.8801C24.705 0.835938 24.5371 0.905564 24.4135 1.02947C24.2898 1.15338 24.2204 1.32139 24.2207 1.49647V5.71491C24.2198 5.88871 24.3551 6.03282 24.5286 6.04294C27.7921 6.21871 30.4129 9.03212 30.4129 12.2419C30.4129 15.4818 27.7641 18.2348 24.5286 18.4094C24.3551 18.4195 24.2198 18.5637 24.2207 18.7375V22.8294C24.2207 23.1936 24.5159 23.4888 24.8801 23.4888H30.4834C30.8476 23.4888 31.1429 23.1936 31.1429 22.8294V20.8579C31.1429 19.4528 32.3564 19.1125 33.2845 20.2141L35.6356 23.1574C35.8468 23.3711 36.1344 23.492 36.4349 23.4933H42.5745C42.9423 23.4952 43.2808 23.293 43.4535 22.9683C43.6262 22.6436 43.6046 22.2499 43.3974 21.9461Z" fill="#FE5000"/>
<path d="M46.4716 0.824707H51.3282C51.6925 0.825325 51.9876 1.12087 51.9876 1.48524V22.8215C51.9876 23.1857 51.6923 23.4809 51.3282 23.4809H46.4716C46.1072 23.4809 45.8117 23.1859 45.811 22.8215V1.48524C45.811 1.12044 46.1068 0.824707 46.4716 0.824707Z" fill="#FE5000"/>
<path d="M59.8716 6.41571H54.7541C54.3921 6.41573 54.0978 6.12389 54.0947 5.7619V1.48524C54.0947 1.12087 54.3898 0.825325 54.7541 0.824707H71.7029C72.0673 0.825325 72.3623 1.12087 72.3623 1.48524V5.7619C72.3623 6.12608 72.0671 6.42131 71.7029 6.42131H66.7109C66.5302 6.4249 66.3847 6.57086 66.3817 6.75158V22.8215C66.3817 23.1857 66.0865 23.4809 65.7223 23.4809H60.8657C60.5014 23.4809 60.2058 23.1859 60.2052 22.8215V6.74598C60.2022 6.56354 60.054 6.4169 59.8716 6.41571Z" fill="#FE5000"/>
<path d="M75.2224 0.824707H90.6105C90.9749 0.825325 91.27 1.12087 91.27 1.48524V5.72383C91.27 5.89872 91.2005 6.06644 91.0768 6.19011C90.9531 6.31377 90.7854 6.38325 90.6105 6.38325H81.0687C80.8832 6.38325 80.7328 6.53362 80.7328 6.71911V9.18211C80.7328 9.27058 80.7684 9.35533 80.8316 9.41726C80.8948 9.47918 80.9802 9.51306 81.0687 9.51125H89.9276C90.292 9.51187 90.587 9.80742 90.587 10.1718V13.9234C90.587 14.2876 90.2918 14.5828 89.9276 14.5828H81.0687C80.8858 14.5828 80.7365 14.7291 80.7328 14.9119V17.6985C80.7365 17.8813 80.8858 18.0277 81.0687 18.0276H90.8703C91.2346 18.0282 91.5297 18.3238 91.5297 18.6882V22.8305C91.5297 23.1947 91.2345 23.4899 90.8703 23.4899H75.2224C74.8582 23.4899 74.563 23.1947 74.563 22.8305V1.48524C74.5627 1.31016 74.632 1.14215 74.7557 1.01824C74.8794 0.894334 75.0473 0.824707 75.2224 0.824707Z" fill="#FE5000"/>
<path d="M105.627 0.5C98.704 0.5 93.1455 5.76186 93.1455 12.2339C93.1455 18.706 98.704 23.9365 105.627 23.9365C112.583 23.9365 118.142 18.7027 118.142 12.2339C118.142 5.76522 112.583 0.5 105.627 0.5ZM105.627 18.4127C103.988 18.4175 102.414 17.7682 101.255 16.6089C100.096 15.4495 99.4468 13.8757 99.4519 12.2362C99.4519 8.88875 102.215 6.02831 105.627 6.02831C109.04 6.02831 111.836 8.92121 111.836 12.2362C111.842 15.5825 109.02 18.4127 105.633 18.4127H105.627Z" fill="#FE5000"/>
<path d="M12.5516 0.5C16.076 0.5 19.2308 2.00467 21.4856 4.40385C21.608 4.53666 21.6706 4.71376 21.659 4.89396C21.6473 5.07415 21.5624 5.24173 21.424 5.3577L18.2244 8.03901C17.9636 8.25431 17.5823 8.23788 17.3411 8.00095C16.0626 6.74625 14.3462 6.03803 12.555 6.02607C9.14151 6.02607 6.37847 8.62677 6.37847 12.169C6.37847 15.7113 9.14151 18.2806 12.555 18.2806C14.3461 18.2682 16.0623 17.56 17.3411 16.3057C17.582 16.0685 17.9633 16.0516 18.2244 16.2665L21.4263 18.9479C21.5651 19.0635 21.6504 19.231 21.6623 19.4113C21.6741 19.5916 21.6115 19.7689 21.489 19.9017C19.2342 22.3009 16.0793 23.8056 12.555 23.8056C5.72578 23.8056 0.199707 18.8975 0.199707 12.169C0.199707 5.44055 5.72578 0.5 12.5516 0.5Z" fill="#FE5000"/>
</g>
<defs>
<clipPath id="clip0_56_1368">
<rect width="118" height="24" fill="white" transform="translate(0.199707 0.5)"/>
</clipPath>
</defs>
</svg>
