<svg width="40" height="40" viewBox="0 0 40 40" fill="none" xmlns="http://www.w3.org/2000/svg">
<path d="M6.6665 13.3333V8.33329C6.6665 7.41282 7.4127 6.66663 8.33317 6.66663H13.3332M6.6665 26.6666V31.6666C6.6665 32.5871 7.4127 33.3333 8.33317 33.3333H13.3332M26.6665 6.66663H31.6665C32.587 6.66663 33.3332 7.41282 33.3332 8.33329V13.3333M33.3332 26.6666V31.6666C33.3332 32.5871 32.587 33.3333 31.6665 33.3333H26.6665" stroke="black" stroke-width="2" stroke-linecap="round" stroke-linejoin="round"/>
<path d="M20.3076 15.4831C20.4688 15.4024 20.5996 15.2717 20.6802 15.1104L21.7551 12.9607C22.0622 12.3464 22.9387 12.3464 23.2458 12.9607L24.3207 15.1104C24.4013 15.2717 24.5321 15.4024 24.6934 15.4831L26.8431 16.5579C27.4573 16.865 27.4573 17.7415 26.8431 18.0486L24.6934 19.1235C24.5321 19.2041 24.4013 19.3349 24.3207 19.4962L23.2458 21.6459C22.9387 22.2601 22.0622 22.2601 21.7551 21.6459L20.6802 19.4962C20.5996 19.3349 20.4688 19.2041 20.3076 19.1235L18.1578 18.0486C17.5436 17.7415 17.5436 16.865 18.1578 16.5579L20.3076 15.4831Z" fill="#0454F2"/>
<path d="M14.2958 22.6556C14.3926 22.6072 14.4711 22.5287 14.5194 22.432L15.3866 20.6977C15.5708 20.3292 16.0967 20.3292 16.281 20.6977L17.1481 22.432C17.1965 22.5287 17.275 22.6072 17.3717 22.6556L19.106 23.5227C19.4746 23.707 19.4746 24.2329 19.106 24.4172L17.3717 25.2843C17.275 25.3327 17.1965 25.4111 17.1481 25.5079L16.281 27.2422C16.0967 27.6107 15.5708 27.6107 15.3866 27.2422L14.5194 25.5079C14.4711 25.4111 14.3926 25.3327 14.2958 25.2843L12.5615 24.4172C12.193 24.2329 12.193 23.707 12.5615 23.5227L14.2958 22.6556Z" fill="#0454F2"/>
</svg>
