<svg width="170" height="30" viewBox="0 0 170 30" fill="none" xmlns="http://www.w3.org/2000/svg">
<g clip-path="url(#clip0_56_1236)">
<mask id="mask0_56_1236" style="mask-type:luminance" maskUnits="userSpaceOnUse" x="0" y="-1" width="94" height="31">
<path d="M0.838379 -0.0283203H93.1381V30H0.838379V-0.0283203Z" fill="white"/>
</mask>
<g mask="url(#mask0_56_1236)">
<path d="M12.6416 23.3594C11.0846 23.3792 9.58294 23.094 8.14076 22.5036C6.69858 21.9093 5.43072 21.0575 4.33324 19.9481C3.20406 18.8863 2.33637 17.6422 1.73018 16.2119C1.12002 14.7855 0.826833 13.2919 0.846643 11.7427C0.830796 10.1896 1.12399 8.69985 1.73018 7.27351C2.33637 5.84322 3.20406 4.59914 4.33324 3.53335C5.4228 2.41209 6.69065 1.55232 8.13284 0.946132C9.57502 0.343902 11.0806 0.0467485 12.6416 0.0586349C14.1314 0.0388239 15.5696 0.308244 16.9484 0.866892C18.3311 1.42158 19.5514 2.22191 20.6093 3.27185L18.3707 5.55003C17.6021 4.80516 16.7225 4.23859 15.732 3.84635C14.7376 3.45411 13.7114 3.26789 12.6416 3.28374C11.5243 3.26789 10.4506 3.48184 9.4205 3.91766C8.39037 4.35745 7.49098 4.98345 6.72631 5.79963C5.92994 6.58808 5.32375 7.50331 4.89981 8.54137C4.47983 9.57942 4.27777 10.6611 4.29758 11.7784C4.2857 12.8877 4.49172 13.9535 4.91566 14.9757C5.33564 16.0019 5.94183 16.9052 6.72631 17.6818C7.11063 18.0701 7.53061 18.4108 7.98624 18.7159C8.43791 19.021 8.91336 19.2785 9.41654 19.4885C9.91972 19.6985 10.4387 19.8609 10.9697 19.9719C11.5045 20.0828 12.0434 20.1422 12.5901 20.1462C13.1329 20.1541 13.6757 20.1066 14.2106 20.0075C14.7455 19.9124 15.2685 19.7619 15.7756 19.5638C16.2828 19.3617 16.7661 19.1161 17.2257 18.8229C17.6853 18.5336 18.1132 18.1969 18.5094 17.8205C19.5237 16.7111 20.0982 15.4076 20.2329 13.906H12.6813V10.6848H23.3669C23.4739 11.3346 23.5135 11.9883 23.4937 12.65C23.561 14.0209 23.355 15.3561 22.8756 16.6437C22.3962 17.9354 21.683 19.0764 20.7361 20.0749C19.6822 21.1724 18.45 22.0084 17.0395 22.5789C15.629 23.1534 14.1631 23.4149 12.6416 23.3594ZM37.4916 21.2199C37.135 21.5606 36.7507 21.8657 36.3386 22.1312C35.9265 22.4006 35.4907 22.6225 35.0351 22.8087C34.5755 22.9909 34.108 23.1296 33.6246 23.2247C33.1412 23.3158 32.6539 23.3634 32.1626 23.3634C31.6674 23.3634 31.18 23.3158 30.6967 23.2247C30.2133 23.1296 29.7458 22.9909 29.2901 22.8087C28.8305 22.6225 28.3947 22.4006 27.9827 22.1312C27.5706 21.8657 27.1863 21.5606 26.8297 21.2199C26.1086 20.5226 25.5579 19.7064 25.1775 18.7753C24.8011 17.8442 24.6228 16.8775 24.6506 15.8711C24.6268 14.8648 24.8011 13.8981 25.1815 12.967C25.5579 12.0359 26.1086 11.2197 26.8297 10.5224C27.1863 10.1817 27.5706 9.87658 27.9827 9.61112C28.3987 9.34566 28.8305 9.11983 29.2901 8.93757C29.7458 8.75532 30.2172 8.61665 30.6967 8.52156C31.18 8.43043 31.6674 8.38289 32.1626 8.38289C32.6539 8.38289 33.1412 8.43043 33.6246 8.52156C34.108 8.61665 34.5755 8.75532 35.0311 8.93757C35.4907 9.11983 35.9265 9.34566 36.3386 9.61112C36.7507 9.87658 37.135 10.1817 37.4916 10.5224C38.2126 11.2197 38.7634 12.0359 39.1437 12.967C39.5201 13.8981 39.6984 14.8648 39.6707 15.8711C39.6945 16.8775 39.5201 17.8442 39.1358 18.7753C38.7554 19.7064 38.2047 20.5226 37.4797 21.2199H37.4916ZM29.1832 19.12C29.3733 19.3221 29.5833 19.5043 29.8131 19.6668C30.039 19.8253 30.2806 19.9639 30.5382 20.0749C30.7957 20.1858 31.0612 20.269 31.3306 20.3245C31.604 20.38 31.8813 20.4077 32.1626 20.4077C32.44 20.4077 32.7173 20.38 32.9907 20.3245C33.2641 20.269 33.5256 20.1858 33.7831 20.0749C34.0406 19.9639 34.2823 19.8253 34.5081 19.6668C34.7379 19.5043 34.9479 19.3221 35.1381 19.12C36.0137 18.2127 36.4337 17.1311 36.398 15.8711C36.4377 14.6073 36.0177 13.5217 35.1381 12.6104C34.944 12.4083 34.734 12.23 34.5042 12.0715C34.2744 11.9131 34.0287 11.7784 33.7752 11.6674C33.5176 11.5565 33.2522 11.4733 32.9788 11.4178C32.7054 11.3623 32.4281 11.3346 32.1468 11.3346C31.8694 11.3346 31.5921 11.3623 31.3187 11.4178C31.0453 11.4733 30.7799 11.5565 30.5223 11.6674C30.2648 11.7784 30.0231 11.9131 29.7933 12.0715C29.5635 12.23 29.3535 12.4083 29.1594 12.6104C28.2798 13.5217 27.8598 14.6073 27.8995 15.8711C27.8678 17.1311 28.2917 18.2167 29.1713 19.12H29.1832ZM53.8825 21.2199C53.5259 21.5606 53.1416 21.8657 52.7296 22.1312C52.3135 22.4006 51.8817 22.6225 51.4221 22.8087C50.9665 22.9909 50.4989 23.1296 50.0156 23.2247C49.5322 23.3158 49.0449 23.3634 48.5496 23.3634C48.0583 23.3634 47.571 23.3158 47.0876 23.2247C46.6042 23.1296 46.1367 22.9909 45.6771 22.8087C45.2215 22.6225 44.7857 22.4006 44.3736 22.1312C43.9576 21.8657 43.5733 21.5606 43.2207 21.2199C42.4996 20.5226 41.9489 19.7064 41.5685 18.7753C41.1881 17.8442 41.0138 16.8775 41.0415 15.8711C41.0138 14.8648 41.1921 13.8981 41.5685 12.967C41.9489 12.0359 42.4996 11.2197 43.2207 10.5224C43.5733 10.1817 43.9576 9.87658 44.3736 9.61112C44.7857 9.3417 45.2215 9.11586 45.6771 8.93361C46.1367 8.75136 46.6042 8.61269 47.0876 8.5176C47.571 8.42647 48.0583 8.37892 48.5496 8.37892C49.0449 8.37892 49.5322 8.42647 50.0156 8.5176C50.4989 8.61269 50.9665 8.75136 51.4221 8.93361C51.8817 9.11586 52.3135 9.3417 52.7296 9.61112C53.1416 9.87658 53.5259 10.1817 53.8825 10.5224C54.6036 11.2197 55.1543 12.0359 55.5307 12.967C55.9111 13.8981 56.0854 14.8648 56.0616 15.8711C56.0894 16.8775 55.9111 17.8442 55.5347 18.7753C55.1543 19.7064 54.6036 20.5226 53.8825 21.2199ZM45.5741 19.12C45.7643 19.3221 45.9743 19.5043 46.2041 19.6668C46.4299 19.8253 46.6716 19.9639 46.9291 20.0749C47.1827 20.1858 47.4482 20.269 47.7215 20.3245C47.9949 20.38 48.2723 20.4077 48.5496 20.4077C48.8309 20.4077 49.1043 20.38 49.3777 20.3245C49.6511 20.269 49.9165 20.1858 50.174 20.0749C50.4276 19.9639 50.6733 19.8253 50.8991 19.6668C51.1289 19.5043 51.3389 19.3221 51.5291 19.12C52.4047 18.2127 52.8247 17.1311 52.785 15.8711C52.8247 14.6073 52.4047 13.5217 51.5291 12.6104C51.3349 12.4083 51.1249 12.23 50.8951 12.0715C50.6653 11.9131 50.4197 11.7784 50.1622 11.6674C49.9086 11.5565 49.6431 11.4733 49.3698 11.4178C49.0924 11.3623 48.819 11.3346 48.5377 11.3346C48.2604 11.3346 47.983 11.3623 47.7097 11.4178C47.4363 11.4733 47.1708 11.5565 46.9133 11.6674C46.6558 11.7784 46.4141 11.9131 46.1843 12.0715C45.9545 12.23 45.7405 12.4083 45.5503 12.6104C44.6708 13.5217 44.2508 14.6073 44.2904 15.8711C44.2548 17.1311 44.6787 18.2167 45.5622 19.12H45.5741ZM64.6593 30.083C63.1022 30.1345 61.7075 29.6868 60.4674 28.7478C59.3779 27.9316 58.5656 26.9015 58.0228 25.6534L60.8953 24.4569C61.2123 25.2018 61.6838 25.8238 62.3177 26.3309C63.0031 26.8856 63.7876 27.1511 64.6712 27.1233C65.2179 27.159 65.7488 27.0758 66.2599 26.8777C66.771 26.6796 67.2187 26.3864 67.6031 25.9902C68.3915 25.0433 68.7402 23.9498 68.649 22.7176V21.6359H68.5341C68.0468 22.2144 67.4604 22.6542 66.7671 22.9513C66.0737 23.2485 65.3487 23.3792 64.5959 23.3356C63.641 23.3396 62.7218 23.1494 61.8462 22.7691C60.9706 22.3887 60.2099 21.8459 59.5601 21.1446C58.8549 20.4513 58.316 19.643 57.9436 18.7278C57.5672 17.8125 57.3889 16.8617 57.4087 15.8711C57.3889 14.8767 57.5672 13.9179 57.9396 12.9947C58.316 12.0715 58.8549 11.2593 59.5601 10.558C60.2059 9.85677 60.9706 9.31 61.8462 8.92965C62.7218 8.54533 63.6371 8.35515 64.5959 8.35515C65.4041 8.35515 66.1767 8.52552 66.9097 8.87022C67.5436 9.14756 68.0904 9.54773 68.546 10.0668H68.6609V8.87022H71.783V22.2778C71.8662 23.3515 71.7315 24.3935 71.3868 25.4117C71.0381 26.43 70.5033 27.3373 69.7822 28.1337C69.0928 28.7914 68.3043 29.2866 67.4168 29.6274C66.5293 29.9641 65.6102 30.1187 64.6593 30.083ZM64.8851 20.4156C65.4279 20.4275 65.9509 20.3245 66.4461 20.1026C66.9454 19.8847 67.3733 19.5677 67.7298 19.1557C68.5341 18.2325 68.9185 17.1588 68.8749 15.9345C68.9224 14.6905 68.5421 13.593 67.7298 12.65C67.3733 12.238 66.9454 11.921 66.4461 11.6991C65.9509 11.4812 65.4279 11.3782 64.8851 11.3901C64.3265 11.3782 63.7916 11.4812 63.2765 11.7031C62.7614 11.921 62.3177 12.238 61.9373 12.65C61.0736 13.5613 60.6536 14.6508 60.6814 15.9068C60.6536 17.1588 61.0736 18.2325 61.9373 19.1319C62.3137 19.5479 62.7614 19.8649 63.2726 20.0907C63.7876 20.3126 64.3225 20.4235 64.8851 20.4156ZM77.3338 0.90255V22.9077H74.0493V0.90255H77.3338ZM86.3475 23.3594C85.353 23.3871 84.3942 23.2128 83.471 22.8364C82.5518 22.464 81.7436 21.9212 81.0463 21.208C80.341 20.5028 79.8061 19.6866 79.4377 18.7595C79.0652 17.8324 78.8949 16.8696 78.9186 15.8711C78.883 14.8727 79.0415 13.902 79.3981 12.967C79.7546 12.0319 80.2776 11.2039 80.971 10.4828C81.6247 9.79337 82.3894 9.26642 83.269 8.90191C84.1446 8.53344 85.0558 8.36308 86.0067 8.38289C86.8823 8.371 87.7183 8.53344 88.5266 8.87022C89.2516 9.16341 89.8935 9.58339 90.4521 10.1301C90.9276 10.5897 91.3476 11.0969 91.7081 11.6555C92.0013 12.1231 92.2509 12.6143 92.453 13.1255L92.7937 13.9813L82.7222 18.1255C82.8728 18.4742 83.0748 18.7951 83.3244 19.0844C83.574 19.3736 83.8593 19.6192 84.1842 19.8213C84.5051 20.0234 84.8538 20.17 85.2223 20.269C85.5907 20.3681 85.9671 20.4077 86.3475 20.3918C87.1003 20.3918 87.8095 20.2096 88.4672 19.8372C89.1249 19.4687 89.6479 18.9576 90.0361 18.3118L92.552 20.0115C91.9062 20.9426 91.098 21.7033 90.1352 22.3055C88.9783 23.0345 87.7144 23.3871 86.3475 23.3594ZM82.1437 15.6453L88.8396 12.864C88.6256 12.3568 88.2809 11.9765 87.7936 11.715C87.2587 11.4138 86.6842 11.2673 86.0701 11.2752C85.0043 11.3029 84.101 11.7031 83.3641 12.4717C82.9362 12.8838 82.6113 13.3671 82.3973 13.9218C82.1834 14.4765 82.1002 15.051 82.1437 15.6453Z" fill="#37393E"/>
</g>
<path d="M109.739 22.9984C109.029 23.0102 108.324 22.9553 107.622 22.8299C106.925 22.7006 106.248 22.5085 105.586 22.2498C104.929 21.9872 104.304 21.6658 103.712 21.2856C103.119 20.9015 102.571 20.4664 102.071 19.9725C101.571 19.4826 101.123 18.9495 100.732 18.3734C100.345 17.7933 100.019 17.1857 99.7526 16.5429C99.4905 15.9001 99.297 15.2377 99.168 14.5596C99.043 13.8776 98.9866 13.1917 99.0027 12.5019C98.9866 11.812 99.043 11.1261 99.168 10.4441C99.297 9.76602 99.4905 9.10361 99.7526 8.46081C100.019 7.818 100.345 7.21047 100.732 6.63037C101.123 6.0542 101.571 5.52114 102.071 5.03119C102.571 4.53733 103.119 4.10226 103.712 3.71814C104.304 3.33794 104.929 3.01654 105.586 2.75393C106.248 2.49524 106.925 2.30318 107.622 2.17383C108.324 2.04841 109.029 1.99353 109.739 2.00529C111.199 1.95826 112.594 2.22479 113.924 2.80096C115.258 3.37714 116.395 4.20808 117.335 5.28988L115.492 7.03409C114.799 6.18746 113.948 5.54073 112.936 5.08999C111.924 4.63924 110.864 4.43934 109.751 4.48245C108.687 4.45894 107.659 4.63924 106.667 5.02335C105.679 5.40747 104.808 5.96797 104.05 6.697C103.264 7.46524 102.672 8.35498 102.268 9.36622C101.865 10.3735 101.688 11.4201 101.732 12.5019C101.688 13.5837 101.865 14.6302 102.268 15.6375C102.672 16.6488 103.264 17.5385 104.05 18.3067C104.808 19.0358 105.679 19.5963 106.667 19.9804C107.659 20.3645 108.687 20.5448 109.751 20.5213C110.993 20.537 112.174 20.2861 113.295 19.7766C114.42 19.2631 115.371 18.5419 116.158 17.6091L118 19.4003C117.024 20.537 115.839 21.4149 114.452 22.0303C112.956 22.7006 111.388 23.022 109.739 22.9984Z" fill="#37393E"/>
<path d="M120 3H123V23H120V3Z" fill="#37393E"/>
<path d="M127.117 11.0037C127.47 10.6854 127.857 10.4007 128.272 10.1536C128.687 9.90262 129.127 9.69288 129.589 9.5206C130.05 9.34832 130.527 9.22097 131.017 9.13109C131.507 9.04494 132.002 9 132.5 9C132.998 9 133.493 9.04494 133.983 9.13109C134.473 9.22097 134.95 9.34832 135.411 9.5206C135.873 9.69288 136.313 9.90262 136.728 10.1536C137.143 10.4007 137.53 10.6854 137.883 11.0037C138.593 11.6742 139.129 12.4457 139.494 13.3109C139.86 14.176 140.026 15.0749 139.997 16C140.026 16.9288 139.86 17.824 139.494 18.6891C139.129 19.5543 138.593 20.3258 137.883 21C137.53 21.3146 137.143 21.5993 136.728 21.8502C136.313 22.0974 135.873 22.3071 135.411 22.4794C134.95 22.6517 134.473 22.7828 133.983 22.8689C133.493 22.9551 132.998 23 132.5 23C132.002 23 131.507 22.9551 131.017 22.8689C130.527 22.7828 130.05 22.6517 129.589 22.4794C129.127 22.3071 128.687 22.0974 128.272 21.8502C127.857 21.5993 127.47 21.3146 127.117 21C126.411 20.3258 125.871 19.5543 125.506 18.6891C125.14 17.824 124.974 16.9288 125.003 16C124.974 15.0749 125.14 14.176 125.506 13.3109C125.871 12.4457 126.411 11.6742 127.117 11.0037ZM129.148 19.4532C129.364 19.6554 129.601 19.839 129.858 20C130.112 20.1648 130.386 20.2996 130.673 20.412C130.959 20.5243 131.258 20.6067 131.566 20.6629C131.873 20.7228 132.18 20.7491 132.496 20.7491C132.807 20.7491 133.119 20.7228 133.422 20.6629C133.729 20.6067 134.028 20.5243 134.315 20.412C134.602 20.2996 134.876 20.1648 135.133 20C135.387 19.839 135.623 19.6554 135.839 19.4532C136.321 18.985 136.687 18.4532 136.932 17.8539C137.177 17.2547 137.28 16.6367 137.251 16C137.28 15.3633 137.177 14.7453 136.932 14.1461C136.687 13.5506 136.321 13.015 135.839 12.5506C135.623 12.3446 135.387 12.161 135.133 12C134.876 11.839 134.602 11.7004 134.315 11.588C134.028 11.4794 133.729 11.3933 133.422 11.3371C133.119 11.2809 132.807 11.2509 132.496 11.2509C132.18 11.2509 131.873 11.2809 131.566 11.3371C131.258 11.3933 130.959 11.4794 130.673 11.588C130.386 11.7004 130.112 11.839 129.858 12C129.601 12.161 129.364 12.3446 129.148 12.5506C128.666 13.015 128.301 13.5506 128.06 14.1461C127.815 14.7453 127.707 15.3633 127.736 16C127.711 16.6367 127.819 17.2547 128.068 17.8502C128.313 18.4457 128.679 18.9738 129.161 19.4382L129.148 19.4532Z" fill="#37393E"/>
<path d="M154 22.4996H151.55V20.6294H151.476C151.029 21.3529 150.435 21.9147 149.686 22.3149C148.907 22.7652 148.069 22.9884 147.17 22.9884C146.445 23.0384 145.746 22.9268 145.071 22.6574C144.396 22.388 143.813 21.984 143.323 21.4491C142.362 20.2369 141.922 18.8592 142.011 17.3161V9H144.546V16.8504C144.546 19.371 145.665 20.6294 147.896 20.6294C148.397 20.6448 148.876 20.5447 149.331 20.3292C149.786 20.1137 150.165 19.8059 150.469 19.4057C151.148 18.5513 151.48 17.5739 151.461 16.4848V9H154V22.4996Z" fill="#37393E"/>
<path d="M162.636 22.9996C161.737 23.0034 160.878 22.828 160.063 22.4696C159.248 22.1111 158.544 21.6078 157.96 20.952C157.303 20.2618 156.806 19.4763 156.468 18.5955C156.13 17.7185 155.975 16.8148 156.003 15.8768C155.975 14.9425 156.13 14.035 156.468 13.158C156.806 12.281 157.303 11.4955 157.96 10.8015C158.544 10.1495 159.248 9.64237 160.063 9.28776C160.878 8.92933 161.737 8.75012 162.636 8.75393C163.646 8.73868 164.596 8.95602 165.491 9.40978C166.278 9.78727 166.91 10.3325 167.384 11.0418H167.499L167.384 9.18862V3H170V22.5649H167.475V20.7117H167.36C166.883 21.421 166.25 21.9662 165.463 22.3475C164.58 22.7937 163.634 23.011 162.636 22.9996ZM163.065 20.7117C163.662 20.7194 164.234 20.6088 164.783 20.38C165.332 20.155 165.809 19.8271 166.211 19.4038C166.656 18.9196 166.986 18.3705 167.205 17.7604C167.423 17.1503 167.511 16.5212 167.475 15.8768C167.511 15.2323 167.423 14.607 167.205 13.9969C166.986 13.383 166.656 12.8377 166.211 12.3535C166.012 12.1399 165.789 11.9531 165.546 11.7853C165.308 11.6175 165.049 11.4765 164.779 11.3621C164.505 11.2477 164.226 11.16 163.932 11.1028C163.642 11.0418 163.348 11.0113 163.053 11.0113C162.755 11.0113 162.461 11.0418 162.171 11.1028C161.876 11.16 161.598 11.2477 161.324 11.3621C161.053 11.4765 160.795 11.6175 160.556 11.7853C160.314 11.9531 160.095 12.1399 159.892 12.3535C159.447 12.8339 159.117 13.3792 158.898 13.9893C158.675 14.5956 158.588 15.2209 158.628 15.8653C158.588 16.5097 158.675 17.1351 158.898 17.7413C159.117 18.3514 159.447 18.8967 159.892 19.3772C160.298 19.8118 160.775 20.1436 161.328 20.3762C161.88 20.6088 162.461 20.7194 163.065 20.7117Z" fill="#37393E"/>
</g>
<defs>
<clipPath id="clip0_56_1236">
<rect width="170" height="30" fill="white"/>
</clipPath>
</defs>
</svg>
