<svg width="217" height="37" viewBox="0 0 217 37" fill="none" xmlns="http://www.w3.org/2000/svg">
<g clip-path="url(#clip0_56_1380)">
<path d="M71.0392 3.97729C63.8911 3.97729 57.9448 9.6914 57.9448 16.7241C57.9448 23.7569 63.8911 29.4081 71.0392 29.4081C74.8979 29.4081 77.7445 28.1523 80.0218 25.829C82.3623 23.5057 83.0582 20.3033 83.0582 17.7288C83.0582 16.9125 82.9949 16.159 82.8684 15.5311H71.0392V18.9846H79.4525C79.1994 20.9312 78.5669 22.3754 77.5547 23.3801C76.3528 24.5731 74.3918 25.9546 71.0392 25.9546C65.852 25.9546 61.8035 21.8103 61.8035 16.7241C61.8035 11.638 65.852 7.49366 71.0392 7.49366C73.8225 7.49366 75.91 8.56113 77.365 10.0054L79.832 7.55646C77.7445 5.54711 74.9612 3.97729 71.0392 3.97729ZM92.4836 13.0822C87.9923 13.0822 84.2601 16.5357 84.2601 21.3707C84.2601 26.143 87.929 29.6593 92.4836 29.6593C97.0381 29.6593 100.707 26.143 100.707 21.3707C100.707 16.5985 96.9749 13.0822 92.4836 13.0822ZM92.4836 26.3941C90.0165 26.3941 87.8658 24.322 87.8658 21.3707C87.8658 18.4195 90.0165 16.3474 92.4836 16.3474C94.9506 16.3474 97.1014 18.3567 97.1014 21.3707C97.1014 24.322 94.9506 26.3941 92.4836 26.3941ZM110.322 13.0822C105.768 13.0822 102.099 16.5357 102.099 21.3707C102.099 26.143 105.768 29.6593 110.322 29.6593C114.814 29.6593 118.546 26.143 118.546 21.3707C118.546 16.5985 114.877 13.0822 110.322 13.0822ZM110.322 26.3941C107.855 26.3941 105.704 24.322 105.704 21.3707C105.704 18.4195 107.855 16.3474 110.322 16.3474C112.789 16.3474 114.94 18.3567 114.94 21.3707C114.94 24.322 112.853 26.3941 110.322 26.3941ZM128.098 13.0822C123.986 13.0822 120.254 16.6613 120.254 21.3079C120.254 25.8918 123.986 29.4709 128.098 29.4709C130.059 29.4709 131.577 28.5918 132.399 27.5872H132.526V28.7802C132.526 31.9198 130.881 33.6152 128.161 33.6152C125.947 33.6152 124.619 32.0454 124.049 30.7268L120.886 32.0454C121.772 34.2431 124.176 36.8804 128.161 36.8804C132.399 36.8804 135.942 34.3687 135.942 28.3407V13.6473H132.526V14.9659H132.399C131.577 13.9613 130.059 13.0822 128.098 13.0822ZM128.414 26.2685C125.947 26.2685 123.859 24.1964 123.859 21.3079C123.859 18.4195 125.947 16.2846 128.414 16.2846C130.881 16.2846 132.779 18.4195 132.779 21.3079C132.779 24.1964 130.881 26.2685 128.414 26.2685ZM138.598 4.98197H142.204V29.2198H138.598V4.98197ZM151.883 13.0822C147.581 13.0822 143.975 16.4102 143.975 21.3707C143.975 26.0174 147.518 29.6593 152.262 29.6593C156.121 29.6593 158.335 27.336 159.221 26.0174L156.374 24.1336C155.425 25.515 154.097 26.3941 152.262 26.3941C150.364 26.3941 149.036 25.5778 148.214 23.8824L159.41 19.2986L159.031 18.3567C158.335 16.5357 156.184 13.0822 151.883 13.0822ZM147.581 21.1196C147.455 17.9172 150.111 16.2846 151.946 16.2846C153.401 16.2846 154.666 16.9753 155.046 18.0427L147.581 21.1196Z" fill="#757575"/>
<path d="M165.736 28.843L174.086 6.80298H177.313L185.663 28.843H182.5L180.349 22.8778H171.05L168.899 28.843H165.736ZM171.999 20.2405H179.4L175.794 10.3193H175.668L171.999 20.2405Z" fill="#757575"/>
<path d="M188.572 27.0221C187.181 25.4523 186.485 23.5685 186.485 21.308C186.485 19.1103 187.181 17.2265 188.572 15.5939C190.027 14.0241 191.672 13.2706 193.696 13.2706C194.835 13.2706 195.847 13.5217 196.733 13.9613C197.681 14.4636 198.377 15.0288 198.883 15.8451H199.01L198.883 13.7729V6.80298H201.73V28.843H199.01V26.7709H198.883C198.377 27.5244 197.681 28.1523 196.733 28.6547C195.784 29.157 194.772 29.3454 193.696 29.3454C191.672 29.3454 189.964 28.5919 188.572 27.0221ZM197.555 25.2639C198.504 24.2592 198.947 22.9406 198.947 21.308C198.947 19.7382 198.504 18.4195 197.555 17.4149C196.669 16.4102 195.531 15.9078 194.139 15.9078C192.747 15.9078 191.609 16.4102 190.723 17.4149C189.774 18.4195 189.331 19.7382 189.331 21.308C189.331 22.8778 189.774 24.1964 190.723 25.2011C191.672 26.2058 192.811 26.7081 194.139 26.7081C195.531 26.7709 196.669 26.2686 197.555 25.2639Z" fill="#757575"/>
<path d="M214.887 27.9641C213.749 28.8432 212.294 29.3455 210.522 29.3455C209.004 29.3455 207.676 28.9688 206.474 28.1525C205.335 27.3362 204.513 26.3315 204.007 25.0129L206.537 23.9454C206.917 24.8245 207.423 25.578 208.182 26.0804C208.878 26.5827 209.7 26.8339 210.522 26.8339C211.408 26.8339 212.167 26.6455 212.8 26.2687C213.432 25.892 213.685 25.3896 213.685 24.8873C213.685 23.9454 212.926 23.1919 211.471 22.7524L208.878 22.1244C205.905 21.3709 204.45 19.9895 204.45 17.8546C204.45 16.4731 205.019 15.4057 206.158 14.5266C207.296 13.7103 208.751 13.2708 210.459 13.2708C211.788 13.2708 212.989 13.5847 214.128 14.2126C215.203 14.8406 215.963 15.7196 216.405 16.7871L213.875 17.8546C213.559 17.2267 213.116 16.7243 212.483 16.3476C211.851 15.9708 211.092 15.7824 210.269 15.7824C209.51 15.7824 208.878 15.9708 208.245 16.3476C207.676 16.7243 207.36 17.1639 207.36 17.729C207.36 18.6081 208.182 19.236 209.827 19.55L212.104 20.1151C215.14 20.8686 216.595 22.3756 216.595 24.6361C216.658 25.9548 216.026 27.085 214.887 27.9641Z" fill="#757575"/>
<path d="M19.4626 4.18148C19.8164 3.25932 20.3028 2.41035 21.0251 1.7224C23.9141 -1.07335 28.6899 -0.370755 30.6504 3.14222C32.1244 5.80623 33.6869 8.41169 35.2051 11.0464C37.7404 15.423 40.3052 19.7996 42.811 24.1908C44.9189 27.8648 42.6341 32.5049 38.4479 33.1343C35.8831 33.5149 33.4805 32.3439 32.1539 30.0604C29.9281 26.2108 27.6876 22.3612 25.4618 18.5261C25.4176 18.4383 25.3587 18.3651 25.2997 18.2919C25.0639 18.1017 24.9607 17.8236 24.8133 17.5747C23.8257 15.8475 22.8086 14.1349 21.821 12.4223C21.1872 11.3099 20.5239 10.2121 19.8901 9.09965C19.3152 8.10431 19.0499 7.02114 19.0794 5.87942C19.1236 5.29392 19.1973 4.70843 19.4626 4.18148Z" fill="#3C8BD9"/>
<path d="M19.5695 4.11108C19.4365 4.63673 19.3183 5.16238 19.2888 5.71723C19.2445 6.94375 19.5547 8.08265 20.1751 9.14855C21.8001 11.9082 23.4251 14.6825 25.0353 17.4567C25.183 17.7049 25.3012 17.9532 25.4489 18.1868C24.5626 19.7053 23.6762 21.2093 22.7751 22.7278C21.5342 24.845 20.2933 26.9768 19.0377 29.094C18.9786 29.094 18.9638 29.0648 18.949 29.021C18.9343 28.9042 18.9786 28.802 19.0081 28.6852C19.6138 26.4949 19.1115 24.553 17.59 22.8884C16.6593 21.8809 15.4775 21.3115 14.1184 21.1217C12.3457 20.8734 10.7798 21.3261 9.37645 22.4212C9.12532 22.611 8.96282 22.8884 8.66737 23.0344C8.60828 23.0344 8.57874 23.0052 8.56396 22.9614C9.27304 21.7495 9.96735 20.5376 10.6764 19.3257C13.6014 14.3028 16.5263 9.27996 19.4661 4.2717C19.4956 4.21329 19.5399 4.16949 19.5695 4.11108Z" fill="#FABC04"/>
<path d="M8.49054 23.2063C8.76817 22.9597 9.03119 22.6985 9.32343 22.4663C12.8742 19.6803 18.2077 21.6973 18.9821 26.1084C19.1721 27.1676 19.0698 28.1833 18.7483 29.1991C18.7337 29.2861 18.7191 29.3587 18.6899 29.4457C18.5584 29.6779 18.4415 29.9246 18.2953 30.1567C16.9948 32.2897 15.0806 33.349 12.5673 33.1894C9.68874 32.9862 7.42385 30.8387 7.02932 27.9947C6.83936 26.6162 7.11699 25.3248 7.83299 24.135C7.97911 23.8738 8.15446 23.6416 8.31519 23.3805C8.38825 23.3224 8.35903 23.2063 8.49054 23.2063Z" fill="#34A852"/>
<path d="M18.8134 29.4102C18.6815 29.28 18.8134 29.187 18.9454 29.094C18.9784 29.1126 19.0444 29.1498 19.0774 29.1684L18.8134 29.4102Z" fill="#E1C025"/>
</g>
<defs>
<clipPath id="clip0_56_1380">
<rect width="216" height="37" fill="white" transform="translate(0.599609)"/>
</clipPath>
</defs>
</svg>
