<svg width="119" height="41" viewBox="0 0 119 41" fill="none" xmlns="http://www.w3.org/2000/svg">
<g clip-path="url(#clip0_56_1307)">
<path d="M70.1635 11.3715C70.1635 14.334 67.8106 16.517 64.9231 16.517C62.0355 16.517 59.6826 14.334 59.6826 11.3715C59.6826 8.38819 62.0355 6.22607 64.9231 6.22607C67.8106 6.22607 70.1635 8.38819 70.1635 11.3715ZM67.8695 11.3715C67.8695 9.52028 66.5058 8.25364 64.9231 8.25364C63.3403 8.25364 61.9766 9.52028 61.9766 11.3715C61.9766 13.2042 63.3403 14.4894 64.9231 14.4894C66.5058 14.4894 67.8695 13.2019 67.8695 11.3715Z" fill="#EA4335"/>
<path d="M81.4687 11.3715C81.4687 14.334 79.1158 16.517 76.2283 16.517C73.3407 16.517 70.9878 14.334 70.9878 11.3715C70.9878 8.39051 73.3407 6.22607 76.2283 6.22607C79.1158 6.22607 81.4687 8.38819 81.4687 11.3715ZM79.1747 11.3715C79.1747 9.52028 77.811 8.25364 76.2283 8.25364C74.6455 8.25364 73.2818 9.52028 73.2818 11.3715C73.2818 13.2042 74.6455 14.4894 76.2283 14.4894C77.811 14.4894 79.1747 13.2019 79.1747 11.3715Z" fill="#FBBC05"/>
<path d="M92.3029 6.53694V15.7746C92.3029 19.5746 90.0277 21.1266 87.338 21.1266C84.8061 21.1266 83.2823 19.4586 82.7076 18.0945L84.7048 17.2756C85.0605 18.1131 85.9319 19.1013 87.3357 19.1013C89.0574 19.1013 90.1243 18.0551 90.1243 16.0855V15.3455H90.0442C89.5308 15.9695 88.5416 16.5147 87.2933 16.5147C84.6813 16.5147 82.2883 14.2737 82.2883 11.3901C82.2883 8.48562 84.6813 6.22607 87.2933 6.22607C88.5392 6.22607 89.5284 6.77124 90.0442 7.37673H90.1243V6.53926H92.3029V6.53694ZM90.2868 11.3901C90.2868 9.57828 89.0597 8.25364 87.4982 8.25364C85.9154 8.25364 84.5894 9.57828 84.5894 11.3901C84.5894 13.1833 85.9154 14.4894 87.4982 14.4894C89.0597 14.4894 90.2868 13.1833 90.2868 11.3901Z" fill="#4285F4"/>
<path d="M95.8947 1.12231V16.2014H93.6572V1.12231H95.8947Z" fill="#34A853"/>
<path d="M104.614 13.0649L106.394 14.2341C105.82 15.0716 104.435 16.5146 102.042 16.5146C99.0742 16.5146 96.8579 14.255 96.8579 11.3691C96.8579 8.30919 99.0931 6.22363 101.785 6.22363C104.496 6.22363 105.822 8.34863 106.255 9.49696L106.493 10.0816L99.5099 12.9304C100.045 13.9627 100.876 14.4893 102.042 14.4893C103.21 14.4893 104.02 13.9233 104.614 13.0649ZM99.1331 11.2137L103.801 9.30441C103.545 8.66181 102.772 8.21408 101.863 8.21408C100.697 8.21408 99.0742 9.22786 99.1331 11.2137Z" fill="#EA4335"/>
<path d="M51.213 10.0329V7.84993H58.6816C58.7546 8.23039 58.7923 8.68044 58.7923 9.16761C58.7923 10.8054 58.3377 12.8307 56.8727 14.2736C55.4478 15.7352 53.6272 16.5146 51.2154 16.5146C46.7451 16.5146 42.9861 12.9281 42.9861 8.52501C42.9861 4.12191 46.7451 0.5354 51.2154 0.5354C53.6884 0.5354 55.4501 1.49118 56.7738 2.73695L55.2099 4.27734C54.2607 3.40043 52.9748 2.71839 51.213 2.71839C47.9486 2.71839 45.3955 5.30968 45.3955 8.52501C45.3955 11.7403 47.9486 14.3316 51.213 14.3316C53.3304 14.3316 54.5363 13.4942 55.3088 12.7332C55.9353 12.1162 56.3475 11.2346 56.51 10.0306L51.213 10.0329Z" fill="#4285F4"/>
<path d="M49.1154 24.6242L46.8155 30.8906H51.5081L49.1896 24.6242H49.1154ZM44.8308 36.3165H42.8276L48.1324 22.4319H50.1912L55.496 36.3165H53.4928L52.1388 32.5531H46.2034L44.8308 36.3165Z" fill="#747474"/>
<path d="M56.4092 26.8164H58.1527V28.1318H58.2269C58.4958 27.6705 58.9178 27.2869 59.4882 26.9809C60.0678 26.6657 60.6613 26.5059 61.2688 26.5059C62.4558 26.5059 63.3647 26.8438 63.9953 27.5107C64.6352 28.1684 64.9598 29.1138 64.9598 30.3424V36.3165H63.1421V30.4703C63.105 28.9128 62.3121 28.1318 60.768 28.1318C60.0492 28.1318 59.4418 28.4241 58.9503 29.0088C58.468 29.5842 58.2269 30.2648 58.2269 31.0549V36.3165H56.4092V26.8164Z" fill="#747474"/>
<path d="M68.3145 33.4116C68.3145 33.8775 68.5093 34.2657 68.9081 34.5809C69.3022 34.8869 69.7705 35.0376 70.3177 35.0376C71.0689 35.0376 71.7459 34.7636 72.3394 34.2155C72.9423 33.6583 73.2483 33.0006 73.2483 32.2424C72.6779 31.8039 71.885 31.5847 70.8741 31.5847C70.1415 31.5847 69.5294 31.7628 69.0379 32.1145C68.5556 32.4571 68.3145 32.891 68.3145 33.4116ZM70.6516 26.5059C71.987 26.5059 73.035 26.8621 73.8047 27.5655C74.5838 28.2734 74.9733 29.2417 74.9733 30.4703V36.3165H73.2483V35.0011H73.1741C72.4183 36.0881 71.4167 36.627 70.1693 36.627C69.1028 36.627 68.2125 36.3165 67.4984 35.6953C66.7936 35.0742 66.4412 34.3023 66.4412 33.3751C66.4412 32.3886 66.8168 31.6121 67.5726 31.0366C68.3238 30.452 69.3347 30.1597 70.5959 30.1597C71.6717 30.1597 72.5527 30.3515 73.2483 30.7261V30.3241C73.2483 29.703 72.9933 29.1823 72.4878 28.753C71.9917 28.3145 71.412 28.0953 70.7443 28.0953C69.7288 28.0953 68.9312 28.5155 68.3516 29.3559L66.7565 28.3693C67.6329 27.127 68.9312 26.5059 70.6516 26.5059Z" fill="#747474"/>
<path d="M78.7655 22.4319V36.3165H76.9478V22.4319H78.7655Z" fill="#747474"/>
<path d="M89.4514 26.8164L83.4047 40.5001H81.5499L83.7942 35.7135L79.8064 26.8164H81.7725L84.6474 33.6491H84.6845L87.4853 26.8164H89.4514Z" fill="#747474"/>
<path d="M94.4303 36.4626C93.6513 36.4626 93.0021 36.2251 92.4827 35.7501C91.9634 35.2751 91.6945 34.6129 91.6852 33.7588V28.4424H89.9788V26.8164H91.6852V23.9116H93.4843V26.8164H95.8585V28.4424H93.4843V33.1741C93.4843 33.809 93.6049 34.2429 93.8553 34.4713C94.115 34.6905 94.3978 34.8001 94.7085 34.8001C94.8569 34.8001 94.996 34.791 95.1351 34.7636C95.2696 34.727 95.3994 34.6859 95.5246 34.6357L96.0811 36.2251C95.6081 36.3804 95.0609 36.4626 94.4303 36.4626Z" fill="#747474"/>
<path d="M99.8228 23.5462C99.8228 23.8888 99.693 24.1856 99.4333 24.4414C99.1829 24.6881 98.8861 24.8068 98.543 24.8068C98.1813 24.8068 97.8799 24.6881 97.6341 24.4414C97.3837 24.1856 97.2632 23.8888 97.2632 23.5462C97.2632 23.1945 97.3837 22.8977 97.6341 22.651C97.8799 22.409 98.1813 22.2856 98.543 22.2856C98.8861 22.2856 99.1829 22.409 99.4333 22.651C99.693 22.8977 99.8228 23.1945 99.8228 23.5462ZM99.4519 26.8164V36.3165H97.6341V26.8164H99.4519Z" fill="#747474"/>
<path d="M105.558 36.627C104.12 36.627 102.933 36.1475 101.996 35.1838C101.069 34.2109 100.605 33.0052 100.605 31.5664C100.605 30.1049 101.069 28.8991 101.996 27.9491C102.933 26.99 104.12 26.5059 105.558 26.5059C106.545 26.5059 107.403 26.7525 108.136 27.2366C108.864 27.7253 109.416 28.3967 109.787 29.2463L108.136 29.9222C107.626 28.7301 106.731 28.1318 105.446 28.1318C104.616 28.1318 103.898 28.4607 103.295 29.1184C102.701 29.7761 102.404 30.5936 102.404 31.5664C102.404 32.5439 102.701 33.3568 103.295 34.0145C103.898 34.6722 104.616 35.0011 105.446 35.0011C106.768 35.0011 107.695 34.4073 108.228 33.2107L109.842 33.8866C109.494 34.7407 108.943 35.4121 108.191 35.8963C107.436 36.3804 106.559 36.627 105.558 36.627Z" fill="#747474"/>
<path d="M118.8 33.6857C118.8 34.5169 118.429 35.2157 117.687 35.7867C116.955 36.3439 116.036 36.627 114.924 36.627C113.959 36.627 113.106 36.3758 112.364 35.878C111.631 35.3802 111.107 34.7225 110.787 33.9049L112.401 33.229C112.647 33.8044 112.995 34.2475 113.44 34.5626C113.894 34.8823 114.39 35.0376 114.924 35.0376C115.503 35.0376 115.985 34.9189 116.37 34.6722C116.764 34.4302 116.964 34.1379 116.964 33.7953C116.964 33.1878 116.486 32.7448 115.536 32.4616L113.885 32.0597C112.002 31.5847 111.066 30.6895 111.066 29.3741C111.066 28.5109 111.423 27.8167 112.141 27.2914C112.855 26.7708 113.774 26.5059 114.886 26.5059C115.74 26.5059 116.509 26.7068 117.205 27.1087C117.896 27.5107 118.378 28.0496 118.652 28.7164L117.038 29.3741C116.853 28.9722 116.547 28.6616 116.129 28.4424C115.721 28.214 115.262 28.0953 114.757 28.0953C114.284 28.0953 113.857 28.214 113.477 28.4424C113.106 28.6753 112.92 28.9631 112.92 29.3011C112.92 29.84 113.44 30.2282 114.478 30.4703L115.925 30.8357C117.84 31.3015 118.8 32.2515 118.8 33.6857Z" fill="#747474"/>
<path d="M25.6973 5.18165V34.6092C25.6973 37.9045 28.0031 39.7368 30.4504 39.7368C32.7137 39.7368 35.2035 38.1762 35.2035 34.6092V5.40459C35.2035 2.38799 32.9401 0.5 30.4504 0.5C27.9606 0.5 25.6973 2.58306 25.6973 5.18165Z" fill="#F8AB00"/>
<path d="M13.2485 20.1184V34.6093C13.2485 37.9045 15.5544 39.7368 18.0016 39.7368C20.265 39.7368 22.7547 38.1762 22.7547 34.6093V20.3414C22.7547 17.3248 20.4914 15.4368 18.0016 15.4368C15.5119 15.4368 13.2485 17.5198 13.2485 20.1184Z" fill="#E37300"/>
<path d="M10.3062 35.0552C10.3062 37.6399 8.17725 39.7369 5.55315 39.7369C2.92904 39.7369 0.800049 37.6399 0.800049 35.0552C0.800049 32.4705 2.92904 30.3735 5.55315 30.3735C8.17725 30.3735 10.3062 32.4705 10.3062 35.0552Z" fill="#E37300"/>
</g>
<defs>
<clipPath id="clip0_56_1307">
<rect width="118" height="40" fill="white" transform="translate(0.800049 0.5)"/>
</clipPath>
</defs>
</svg>
