<svg width="150" height="30" viewBox="0 0 150 30" fill="none" xmlns="http://www.w3.org/2000/svg">
<mask id="mask0_56_1528" style="mask-type:luminance" maskUnits="userSpaceOnUse" x="28" y="4" width="6" height="22">
<path d="M28.8799 4.40546H33.6854V25.5945H28.8799V4.40546Z" fill="white"/>
</mask>
<g mask="url(#mask0_56_1528)">
<path d="M28.8799 4.71552H33.6383V25.283H28.8799V4.71552Z" fill="#F2F2F2"/>
</g>
<mask id="mask1_56_1528" style="mask-type:luminance" maskUnits="userSpaceOnUse" x="35" y="4" width="17" height="22">
<path d="M35.3472 4.40546H51.1351V25.666H35.3472V4.40546Z" fill="white"/>
</mask>
<g mask="url(#mask1_56_1528)">
<path d="M51.023 4.71552V25.283H46.8213L46.6444 23.5481H46.5275C45.7339 24.9568 44.2035 25.666 42.3841 25.666C38.5037 25.666 35.7139 22.55 35.7139 18.2297C35.7139 13.9111 38.5037 10.795 42.3241 10.795C44.1158 10.795 45.6446 11.4994 46.4675 12.9114H46.5551V4.71552H51.023ZM43.4715 21.6119C45.4677 21.6119 46.7044 20.1708 46.7044 18.233C46.7044 16.2968 45.4677 14.8832 43.4715 14.8832C41.4737 14.8832 40.2662 16.2936 40.2662 18.233C40.2662 20.174 41.5029 21.6119 43.4715 21.6119Z" fill="#F2F2F2"/>
</g>
<mask id="mask2_56_1528" style="mask-type:luminance" maskUnits="userSpaceOnUse" x="52" y="10" width="17" height="16">
<path d="M52.3818 10.6376H68.1698V25.666H52.3818V10.6376Z" fill="white"/>
</mask>
<g mask="url(#mask2_56_1528)">
<path d="M52.5117 18.2329C52.5117 13.9743 55.7154 10.7982 60.2694 10.7982C64.8217 10.7982 68.0546 13.9711 68.0546 18.2329C68.0546 22.4964 64.8217 25.6692 60.2694 25.6692C55.7154 25.6692 52.5117 22.5256 52.5117 18.2329ZM63.473 18.2329C63.473 16.2935 62.238 14.8832 60.2694 14.8832C58.3007 14.8832 57.0965 16.2935 57.0965 18.2329C57.0965 20.1739 58.3316 21.6119 60.2694 21.6119C62.2055 21.6119 63.473 20.1707 63.473 18.2329Z" fill="#F2F2F2"/>
</g>
<mask id="mask3_56_1528" style="mask-type:luminance" maskUnits="userSpaceOnUse" x="69" y="4" width="17" height="22">
<path d="M69.0005 4.33246H85.6194V25.666H69.0005V4.33246Z" fill="white"/>
</mask>
<g mask="url(#mask3_56_1528)">
<path d="M69.0103 18.9097H73.7411C73.9472 20.7015 75.093 21.4951 77.3246 21.4951C79.5545 21.4951 80.6451 20.6414 80.6451 19.2928C80.6451 18.1778 79.8531 17.3517 77.9121 17.0304L75.0021 16.5581C70.9756 15.9105 69.0963 13.8851 69.0963 10.6246C69.0963 6.80424 71.8569 4.33575 77.0584 4.33575C82.2599 4.33575 85.0222 6.77503 85.1991 11.0677H80.4682C80.3806 9.30357 79.3208 8.50995 77.0909 8.50995C74.8593 8.50995 73.8856 9.30357 73.8856 10.6571C73.8856 11.7428 74.5915 12.3596 77.0016 12.7426L79.9132 13.2132C83.7043 13.8283 85.436 15.8586 85.436 19.1191C85.436 23.3777 82.4401 25.6725 77.357 25.6725C72.2724 25.6725 69.244 23.2057 69.0103 18.913V18.9097Z" fill="#F2F2F2"/>
</g>
<mask id="mask4_56_1528" style="mask-type:luminance" maskUnits="userSpaceOnUse" x="86" y="10" width="16" height="16">
<path d="M86.4502 10.6376H101.823V25.666H86.4502V10.6376Z" fill="white"/>
</mask>
<g mask="url(#mask4_56_1528)">
<path d="M101.604 19.4663H91.0838C91.4052 21.3457 92.525 22.1994 94.4044 22.1994C95.9624 22.1994 96.9005 21.6119 97.2267 20.6689H101.458C100.81 23.4912 98.254 25.666 94.3476 25.666C89.706 25.666 86.6191 22.5499 86.6191 18.2897C86.6191 14.0311 89.7628 10.7982 94.2307 10.7982C98.7003 10.7982 101.724 13.825 101.724 18.2329C101.724 18.6435 101.696 19.0557 101.607 19.4696L101.604 19.4663ZM91.1715 16.7041H97.1942C96.8404 14.94 95.8748 14.2648 94.3167 14.2648C92.6695 14.2648 91.5545 15.0292 91.1715 16.7041Z" fill="#F2F2F2"/>
</g>
<path d="M103.31 4.71552H107.778V25.283H103.31V4.71552Z" fill="#F2F2F2"/>
<path d="M109.984 4.71552H114.452V25.283H109.984V4.71552Z" fill="#F2F2F2"/>
<mask id="mask5_56_1528" style="mask-type:luminance" maskUnits="userSpaceOnUse" x="116" y="20" width="6" height="6">
<path d="M116.364 20.6089H121.119V25.5946H116.364V20.6089Z" fill="white"/>
</mask>
<g mask="url(#mask5_56_1528)">
<path d="M121.12 20.8393H116.673V25.2861H121.12V20.8393Z" fill="#F2F2F2"/>
</g>
</svg>
