<svg width="150" height="25" viewBox="0 0 150 25" fill="none" xmlns="http://www.w3.org/2000/svg">
<g clip-path="url(#clip0_220_4901)">
<path d="M19.9632 6.84912H1.42376C0.63744 6.84912 0 7.48066 0 8.2597V17.7928C0 18.5719 0.63744 19.2034 1.42376 19.2034H19.9632C20.7495 19.2034 21.3869 18.5719 21.3869 17.7928V8.2597C21.3869 7.48066 20.7495 6.84912 19.9632 6.84912Z" fill="#086CF2"/>
<path d="M1.42383 5.57074C1.42383 4.79258 2.06216 4.16016 2.84759 4.16016H18.5395C19.3249 4.16016 19.9633 4.79258 19.9633 5.57074" fill="#086CF2"/>
<path d="M3.59692 3.08786C3.59692 2.38394 4.1742 1.81201 4.88469 1.81201H16.5051C17.2156 1.81201 17.7929 2.38394 17.7929 3.08786" fill="#086CF2"/>
<path d="M28.5225 19.2558V1.77344H35.4303C36.6904 1.77344 37.8283 1.98241 38.8468 2.39761C39.8626 2.81281 40.7341 3.41224 41.4556 4.1959C42.1772 4.97955 42.7323 5.90344 43.1181 6.96756C43.5039 8.03444 43.6981 9.21405 43.6981 10.5146C43.6981 11.8152 43.5039 13.0003 43.1181 14.0727C42.7323 15.1478 42.18 16.0717 41.4668 16.8444C40.7535 17.6198 39.882 18.2137 38.8579 18.6289C37.8338 19.0441 36.6904 19.2531 35.4303 19.2531H28.5225V19.2558ZM31.2451 16.9324L31.1702 16.6574H35.3054C36.1963 16.6574 36.9901 16.5172 37.6867 16.234C38.3833 15.9507 38.9717 15.5465 39.4518 15.0213C39.932 14.4962 40.2956 13.8527 40.5481 13.0856C40.8007 12.3184 40.9256 11.4633 40.9256 10.5119C40.9256 9.5605 40.8007 8.71086 40.5481 7.95195C40.2956 7.19579 39.9264 6.54961 39.438 6.01618C38.9495 5.48274 38.3611 5.07579 37.6728 4.79258C36.9845 4.50936 36.1936 4.36913 35.3027 4.36913H31.0924L31.2423 4.14365V16.9296L31.2451 16.9324Z" fill="#231F20"/>
<path d="M51.8132 19.506C50.7197 19.506 49.7261 19.2063 48.8269 18.6069C47.9277 18.0075 47.2088 17.1908 46.6704 16.1597C46.132 15.1286 45.8628 13.9627 45.8628 12.6621C45.8628 11.3615 46.1348 10.1764 46.6815 9.15353C47.2283 8.13065 47.9665 7.32775 48.899 6.74207C49.8316 6.15914 50.8779 5.86768 52.038 5.86768C52.7263 5.86768 53.3563 5.96666 53.928 6.16739C54.4997 6.36812 54.9993 6.64583 55.4267 7.00329C55.8541 7.36075 56.2093 7.7732 56.4841 8.24064C56.7616 8.70808 56.9337 9.20577 57.0003 9.73921L56.4203 9.53849V6.14264H59.043V19.2558H56.4203V16.1349L57.0253 15.959C56.9254 16.4072 56.7172 16.8444 56.4064 17.2706C56.0956 17.694 55.7015 18.0735 55.2213 18.4062C54.7412 18.7389 54.2139 19.0056 53.6338 19.2063C53.0538 19.4071 52.446 19.506 51.8076 19.506H51.8132ZM52.4931 17.1331C53.2841 17.1331 53.9807 16.9406 54.5858 16.5584C55.1908 16.1762 55.6654 15.6455 56.0095 14.9718C56.3537 14.2982 56.5257 13.5283 56.5257 12.6621C56.5257 11.796 56.3537 11.0563 56.0095 10.3909C55.6654 9.72546 55.1908 9.20028 54.5858 8.81807C53.9807 8.43587 53.2841 8.24339 52.4931 8.24339C51.7022 8.24339 51.0361 8.43587 50.4394 8.81807C49.8427 9.20028 49.3708 9.72546 49.0267 10.3909C48.6826 11.0563 48.5105 11.8152 48.5105 12.6621C48.5105 13.509 48.6826 14.2982 49.0267 14.9718C49.3708 15.6455 49.8427 16.1762 50.4394 16.5584C51.0361 16.9406 51.7216 17.1331 52.4931 17.1331Z" fill="#231F20"/>
<path d="M61.5686 8.64219V6.14549H69.9891V8.64219H61.5686ZM64.3162 19.2559V2.79639H66.914V19.2559H64.3162Z" fill="#231F20"/>
<path d="M77.3244 19.506C76.2309 19.506 75.2373 19.2063 74.3381 18.6069C73.4389 18.0075 72.7201 17.1908 72.1816 16.1597C71.6432 15.1286 71.374 13.9627 71.374 12.6621C71.374 11.3615 71.646 10.1764 72.1928 9.15353C72.7395 8.13065 73.4777 7.32775 74.4103 6.74207C75.3428 6.15914 76.3891 5.86768 77.5492 5.86768C78.2375 5.86768 78.8675 5.96666 79.4392 6.16739C80.011 6.36812 80.5105 6.64583 80.9379 7.00329C81.3653 7.36075 81.7178 7.7732 81.9953 8.24064C82.2729 8.70808 82.4449 9.20577 82.5115 9.73921L81.9315 9.53849V6.14264H84.5542V19.2558H81.9315V16.1349L82.5365 15.959C82.4366 16.4072 82.2285 16.8444 81.9176 17.2706C81.6068 17.6968 81.2127 18.0735 80.7325 18.4062C80.2524 18.7389 79.7251 19.0056 79.145 19.2063C78.565 19.4071 77.9544 19.506 77.3161 19.506H77.3244ZM78.0044 17.1331C78.7953 17.1331 79.492 16.9406 80.097 16.5584C80.702 16.1762 81.1766 15.6455 81.5207 14.9718C81.8649 14.2982 82.037 13.5283 82.037 12.6621C82.037 11.796 81.8649 11.0563 81.5207 10.3909C81.1766 9.72546 80.702 9.20028 80.097 8.81807C79.492 8.43587 78.7953 8.24339 78.0044 8.24339C77.2134 8.24339 76.5473 8.43587 75.9506 8.81807C75.3539 9.20028 74.8821 9.72546 74.5379 10.3909C74.1938 11.0563 74.0217 11.8152 74.0217 12.6621C74.0217 13.509 74.1938 14.2982 74.5379 14.9718C74.8821 15.6455 75.3539 16.1762 75.9506 16.5584C76.5473 16.9406 77.2328 17.1331 78.0044 17.1331Z" fill="#231F20"/>
<path d="M93.7101 19.5061C92.5001 19.5061 91.4205 19.2119 90.4713 18.6208C89.5221 18.0296 88.77 17.2212 88.2149 16.1983C87.6599 15.1754 87.3823 14.0041 87.3823 12.6897C87.3823 11.3754 87.6543 10.204 88.2011 9.18113C88.7478 8.15826 89.4916 7.34985 90.4324 6.75867C91.3733 6.16749 92.4418 5.87328 93.6352 5.87328C94.2902 5.87328 94.9258 5.97777 95.5391 6.18674C96.1525 6.39572 96.702 6.67893 97.1905 7.03639C97.6761 7.39385 98.0591 7.78705 98.3367 8.2105C98.6142 8.63395 98.753 9.0629 98.753 9.49735L97.9981 9.54684V0.775391H100.596V19.2559H97.9981V16.135H98.5032C98.5032 16.5338 98.3672 16.9297 98.1008 17.3202C97.8316 17.7106 97.4735 18.0736 97.0295 18.4063C96.5854 18.739 96.072 19.0057 95.4919 19.2064C94.9119 19.4072 94.3207 19.5061 93.7157 19.5061H93.7101ZM94.0626 17.2817C94.8508 17.2817 95.5502 17.0809 96.1552 16.6822C96.7603 16.2835 97.2349 15.7363 97.579 15.0462C97.9231 14.356 98.0952 13.5696 98.0952 12.687C98.0952 11.8043 97.9231 11.0179 97.579 10.3277C97.2349 9.63758 96.7603 9.09039 96.1552 8.69169C95.5502 8.29299 94.8536 8.09226 94.0626 8.09226C93.2716 8.09226 92.575 8.29299 91.97 8.69169C91.365 9.09039 90.8904 9.63758 90.5462 10.3277C90.2021 11.0179 90.03 11.8043 90.03 12.687C90.03 13.5696 90.2021 14.356 90.5462 15.0462C90.8904 15.7363 91.365 16.2835 91.97 16.6822C92.575 17.0809 93.2716 17.2817 94.0626 17.2817Z" fill="#231F20"/>
<path d="M105.861 3.24736C105.306 3.24736 104.878 3.10713 104.576 2.82391C104.273 2.5407 104.123 2.14199 104.123 1.62506C104.123 1.14111 104.279 0.75066 104.59 0.450946C104.9 0.151232 105.325 0 105.863 0C106.402 0 106.846 0.142983 107.148 0.423449C107.451 0.706665 107.601 1.10537 107.601 1.62231C107.601 2.10625 107.445 2.4967 107.135 2.79641C106.824 3.09613 106.399 3.24736 105.861 3.24736ZM104.598 19.2559V6.14276H107.196V19.2559H104.598Z" fill="#231F20"/>
<path d="M116.271 19.506C115.177 19.506 114.184 19.2063 113.285 18.6069C112.385 18.0075 111.667 17.1908 111.128 16.1597C110.59 15.1286 110.321 13.9627 110.321 12.6621C110.321 11.3615 110.593 10.1764 111.139 9.15353C111.686 8.13065 112.424 7.32775 113.357 6.74207C114.289 6.15914 115.336 5.86768 116.496 5.86768C117.184 5.86768 117.814 5.96666 118.386 6.16739C118.957 6.36812 119.457 6.64583 119.884 7.00329C120.312 7.36075 120.667 7.7732 120.945 8.24064C121.222 8.70808 121.394 9.20577 121.461 9.73921L120.881 9.53849V6.14264H123.504V19.2558H120.881V16.1349L121.486 15.959C121.386 16.4072 121.178 16.8444 120.867 17.2706C120.556 17.694 120.162 18.0735 119.682 18.4062C119.202 18.7389 118.674 19.0056 118.094 19.2063C117.514 19.4071 116.904 19.506 116.265 19.506H116.271ZM116.951 17.1331C117.739 17.1331 118.438 16.9406 119.044 16.5584C119.649 16.1762 120.123 15.6455 120.467 14.9718C120.811 14.2982 120.984 13.5283 120.984 12.6621C120.984 11.796 120.811 11.0563 120.467 10.3909C120.123 9.72546 119.649 9.20028 119.044 8.81807C118.438 8.43587 117.742 8.24339 116.951 8.24339C116.16 8.24339 115.494 8.43587 114.897 8.81807C114.3 9.20028 113.829 9.72546 113.484 10.3909C113.14 11.0563 112.968 11.8152 112.968 12.6621C112.968 13.509 113.14 14.2982 113.484 14.9718C113.829 15.6455 114.3 16.1762 114.897 16.5584C115.494 16.9406 116.179 17.1331 116.951 17.1331Z" fill="#231F20"/>
<path d="M127.136 19.256V6.14282H129.759V10.2646L129.507 9.26645C129.693 8.63402 130.006 8.05934 130.453 7.5424C130.897 7.02547 131.41 6.61852 131.991 6.3188C132.571 6.01909 133.17 5.87061 133.792 5.87061C134.078 5.87061 134.35 5.89535 134.61 5.94485C134.871 5.99434 135.077 6.05208 135.227 6.12083L134.547 8.91724C134.344 8.83475 134.122 8.76326 133.878 8.70552C133.634 8.64777 133.395 8.61753 133.159 8.61753C132.707 8.61753 132.271 8.70552 131.86 8.87874C131.449 9.05472 131.086 9.29394 130.775 9.60191C130.464 9.90987 130.217 10.2673 130.031 10.677C129.845 11.084 129.754 11.5294 129.754 12.0134V19.256H127.131H127.136Z" fill="#231F20"/>
<path d="M139.512 25L142.185 18.882L142.21 20.9305L135.604 6.14551H138.629L142.765 15.7859C142.848 15.9536 142.951 16.2066 143.067 16.5475C143.184 16.8885 143.286 17.2267 143.37 17.5594L142.715 17.7079C142.848 17.3587 142.978 17.0095 143.106 16.6602C143.234 16.311 143.353 15.9618 143.472 15.6126L146.925 6.14826H150L144.555 19.2614L142.312 25.0055H139.515L139.512 25Z" fill="#231F20"/>
</g>
<defs>
<clipPath id="clip0_220_4901">
<rect width="150" height="25" fill="white"/>
</clipPath>
</defs>
</svg>
