<svg width="150" height="25" viewBox="0 0 150 25" fill="none" xmlns="http://www.w3.org/2000/svg">
<g clip-path="url(#clip0_220_4886)">
<path d="M19.9632 6.84943H1.42376C0.63744 6.84943 0 7.48097 0 8.26001V17.7931C0 18.5722 0.63744 19.2037 1.42376 19.2037H19.9632C20.7495 19.2037 21.3869 18.5722 21.3869 17.7931V8.26001C21.3869 7.48097 20.7495 6.84943 19.9632 6.84943Z" fill="white"/>
<path d="M1.42383 5.57083C1.42383 4.79267 2.06216 4.16025 2.84759 4.16025H18.5395C19.3249 4.16025 19.9633 4.79267 19.9633 5.57083" fill="white"/>
<path d="M3.59692 3.08787C3.59692 2.38396 4.1742 1.81203 4.88469 1.81203H16.5051C17.2156 1.81203 17.7929 2.38396 17.7929 3.08787" fill="white"/>
<path d="M28.5225 19.2559V1.77354H35.4303C36.6904 1.77354 37.8283 1.98252 38.8468 2.39772C39.8626 2.81292 40.7341 3.41235 41.4556 4.196C42.1772 4.97966 42.7323 5.90355 43.1181 6.96767C43.5039 8.03454 43.6981 9.21415 43.6981 10.5147C43.6981 11.8153 43.5039 13.0004 43.1181 14.0728C42.7323 15.1479 42.18 16.0718 41.4668 16.8445C40.7535 17.6199 39.882 18.2138 38.8579 18.629C37.8338 19.0442 36.6904 19.2532 35.4303 19.2532H28.5225V19.2559ZM31.2451 16.9325L31.1702 16.6575H35.3054C36.1963 16.6575 36.9901 16.5173 37.6867 16.2341C38.3833 15.9508 38.9717 15.5466 39.4518 15.0215C39.932 14.4963 40.2956 13.8528 40.5481 13.0857C40.8007 12.3185 40.9256 11.4634 40.9256 10.512C40.9256 9.56061 40.8007 8.71096 40.5481 7.95205C40.2956 7.19589 39.9264 6.54972 39.438 6.01629C38.9495 5.48285 38.3611 5.0759 37.6728 4.79268C36.9845 4.50947 36.1936 4.36923 35.3027 4.36923H31.0924L31.2423 4.14376V16.9297L31.2451 16.9325Z" fill="white"/>
<path d="M51.8132 19.5062C50.7197 19.5062 49.7261 19.2064 48.8269 18.607C47.9277 18.0076 47.2088 17.1909 46.6704 16.1598C46.132 15.1287 45.8628 13.9628 45.8628 12.6622C45.8628 11.3616 46.1348 10.1765 46.6815 9.15365C47.2283 8.13078 47.9665 7.32787 48.899 6.74219C49.8316 6.15926 50.8779 5.8678 52.038 5.8678C52.7263 5.8678 53.3563 5.96679 53.928 6.16751C54.4997 6.36824 54.9993 6.64595 55.4267 7.00341C55.8541 7.36087 56.2093 7.77332 56.4841 8.24076C56.7616 8.70821 56.9337 9.2059 57.0003 9.73933L56.4203 9.53861V6.14276H59.043V19.2559H56.4203V16.1351L57.0253 15.9591C56.9254 16.4073 56.7172 16.8445 56.4064 17.2707C56.0956 17.6941 55.7015 18.0736 55.2213 18.4063C54.7412 18.739 54.2139 19.0057 53.6338 19.2064C53.0538 19.4072 52.446 19.5062 51.8076 19.5062H51.8132ZM52.4931 17.1332C53.2841 17.1332 53.9807 16.9407 54.5858 16.5585C55.1908 16.1763 55.6654 15.6456 56.0095 14.972C56.3537 14.2983 56.5257 13.5284 56.5257 12.6622C56.5257 11.7961 56.3537 11.0564 56.0095 10.391C55.6654 9.72559 55.1908 9.2004 54.5858 8.81819C53.9807 8.43599 53.2841 8.24351 52.4931 8.24351C51.7022 8.24351 51.0361 8.43599 50.4394 8.81819C49.8427 9.2004 49.3708 9.72559 49.0267 10.391C48.6826 11.0564 48.5105 11.8153 48.5105 12.6622C48.5105 13.5091 48.6826 14.2983 49.0267 14.972C49.3708 15.6456 49.8427 16.1763 50.4394 16.5585C51.0361 16.9407 51.7216 17.1332 52.4931 17.1332Z" fill="white"/>
<path d="M61.5686 8.64222V6.14552H69.9891V8.64222H61.5686ZM64.3162 19.2559V2.79642H66.914V19.2559H64.3162Z" fill="white"/>
<path d="M77.3244 19.5062C76.2309 19.5062 75.2373 19.2064 74.3381 18.607C73.4389 18.0076 72.7201 17.1909 72.1816 16.1598C71.6432 15.1287 71.374 13.9628 71.374 12.6622C71.374 11.3616 71.646 10.1765 72.1928 9.15365C72.7395 8.13078 73.4777 7.32787 74.4103 6.74219C75.3428 6.15926 76.3891 5.8678 77.5492 5.8678C78.2375 5.8678 78.8675 5.96679 79.4392 6.16751C80.011 6.36824 80.5105 6.64595 80.9379 7.00341C81.3653 7.36087 81.7178 7.77332 81.9953 8.24076C82.2729 8.70821 82.4449 9.2059 82.5115 9.73933L81.9315 9.53861V6.14276H84.5542V19.2559H81.9315V16.1351L82.5365 15.9591C82.4366 16.4073 82.2285 16.8445 81.9176 17.2707C81.6068 17.6969 81.2127 18.0736 80.7325 18.4063C80.2524 18.739 79.7251 19.0057 79.145 19.2064C78.565 19.4072 77.9544 19.5062 77.3161 19.5062H77.3244ZM78.0044 17.1332C78.7953 17.1332 79.492 16.9407 80.097 16.5585C80.702 16.1763 81.1766 15.6456 81.5207 14.972C81.8649 14.2983 82.037 13.5284 82.037 12.6622C82.037 11.7961 81.8649 11.0564 81.5207 10.391C81.1766 9.72559 80.702 9.2004 80.097 8.81819C79.492 8.43599 78.7953 8.24351 78.0044 8.24351C77.2134 8.24351 76.5473 8.43599 75.9506 8.81819C75.3539 9.2004 74.8821 9.72559 74.5379 10.391C74.1938 11.0564 74.0217 11.8153 74.0217 12.6622C74.0217 13.5091 74.1938 14.2983 74.5379 14.972C74.8821 15.6456 75.3539 16.1763 75.9506 16.5585C76.5473 16.9407 77.2328 17.1332 78.0044 17.1332Z" fill="white"/>
<path d="M93.7101 19.5062C92.5001 19.5062 91.4205 19.2119 90.4713 18.6208C89.5221 18.0296 88.77 17.2212 88.2149 16.1983C87.6599 15.1754 87.3823 14.0041 87.3823 12.6897C87.3823 11.3754 87.6543 10.204 88.2011 9.18115C88.7478 8.15827 89.4916 7.34987 90.4324 6.75869C91.3733 6.16751 92.4418 5.8733 93.6352 5.8733C94.2902 5.8733 94.9258 5.97778 95.5391 6.18676C96.1525 6.39573 96.702 6.67895 97.1905 7.03641C97.6761 7.39386 98.0591 7.78707 98.3367 8.21052C98.6142 8.63396 98.753 9.06291 98.753 9.49736L97.9981 9.54686V0.775406H100.596V19.2559H97.9981V16.1351H98.5032C98.5032 16.5338 98.3672 16.9297 98.1008 17.3202C97.8316 17.7106 97.4735 18.0736 97.0295 18.4063C96.5854 18.739 96.072 19.0057 95.4919 19.2064C94.9119 19.4072 94.3207 19.5062 93.7157 19.5062H93.7101ZM94.0626 17.2817C94.8508 17.2817 95.5502 17.081 96.1552 16.6822C96.7603 16.2835 97.2349 15.7364 97.579 15.0462C97.9231 14.356 98.0952 13.5696 98.0952 12.687C98.0952 11.8043 97.9231 11.0179 97.579 10.3278C97.2349 9.63759 96.7603 9.09041 96.1552 8.69171C95.5502 8.29301 94.8536 8.09228 94.0626 8.09228C93.2716 8.09228 92.575 8.29301 91.97 8.69171C91.365 9.09041 90.8904 9.63759 90.5462 10.3278C90.2021 11.0179 90.03 11.8043 90.03 12.687C90.03 13.5696 90.2021 14.356 90.5462 15.0462C90.8904 15.7364 91.365 16.2835 91.97 16.6822C92.575 17.081 93.2716 17.2817 94.0626 17.2817Z" fill="white"/>
<path d="M105.861 3.24736C105.306 3.24736 104.878 3.10713 104.576 2.82391C104.273 2.5407 104.123 2.14199 104.123 1.62506C104.123 1.14111 104.279 0.75066 104.59 0.450946C104.9 0.151232 105.325 0 105.863 0C106.402 0 106.846 0.142983 107.148 0.423449C107.451 0.706665 107.601 1.10537 107.601 1.62231C107.601 2.10625 107.445 2.4967 107.135 2.79641C106.824 3.09613 106.399 3.24736 105.861 3.24736ZM104.598 19.2559V6.14276H107.196V19.2559H104.598Z" fill="white"/>
<path d="M116.271 19.5062C115.177 19.5062 114.184 19.2064 113.285 18.607C112.385 18.0076 111.667 17.1909 111.128 16.1598C110.59 15.1287 110.321 13.9628 110.321 12.6622C110.321 11.3616 110.593 10.1765 111.139 9.15365C111.686 8.13078 112.424 7.32787 113.357 6.74219C114.289 6.15926 115.336 5.8678 116.496 5.8678C117.184 5.8678 117.814 5.96679 118.386 6.16751C118.957 6.36824 119.457 6.64595 119.884 7.00341C120.312 7.36087 120.667 7.77332 120.945 8.24076C121.222 8.70821 121.394 9.2059 121.461 9.73933L120.881 9.53861V6.14276H123.504V19.2559H120.881V16.1351L121.486 15.9591C121.386 16.4073 121.178 16.8445 120.867 17.2707C120.556 17.6941 120.162 18.0736 119.682 18.4063C119.202 18.739 118.674 19.0057 118.094 19.2064C117.514 19.4072 116.904 19.5062 116.265 19.5062H116.271ZM116.951 17.1332C117.739 17.1332 118.438 16.9407 119.044 16.5585C119.649 16.1763 120.123 15.6456 120.467 14.972C120.811 14.2983 120.984 13.5284 120.984 12.6622C120.984 11.7961 120.811 11.0564 120.467 10.391C120.123 9.72559 119.649 9.2004 119.044 8.81819C118.438 8.43599 117.742 8.24351 116.951 8.24351C116.16 8.24351 115.494 8.43599 114.897 8.81819C114.3 9.2004 113.829 9.72559 113.484 10.391C113.14 11.0564 112.968 11.8153 112.968 12.6622C112.968 13.5091 113.14 14.2983 113.484 14.972C113.829 15.6456 114.3 16.1763 114.897 16.5585C115.494 16.9407 116.179 17.1332 116.951 17.1332Z" fill="white"/>
<path d="M127.136 19.2559V6.14276H129.759V10.2645L129.507 9.26639C129.693 8.63396 130.006 8.05928 130.453 7.54234C130.897 7.02541 131.41 6.61845 131.991 6.31874C132.571 6.01903 133.17 5.87054 133.792 5.87054C134.078 5.87054 134.35 5.89529 134.61 5.94479C134.871 5.99428 135.077 6.05202 135.227 6.12076L134.547 8.91718C134.344 8.83469 134.122 8.7632 133.878 8.70545C133.634 8.64771 133.395 8.61746 133.159 8.61746C132.707 8.61746 132.271 8.70545 131.86 8.87868C131.449 9.05466 131.086 9.29388 130.775 9.60185C130.464 9.90981 130.217 10.2673 130.031 10.677C129.845 11.0839 129.754 11.5294 129.754 12.0133V19.2559H127.131H127.136Z" fill="white"/>
<path d="M139.512 25L142.185 18.882L142.21 20.9305L135.604 6.14552H138.629L142.765 15.7859C142.848 15.9536 142.951 16.2066 143.067 16.5475C143.184 16.8885 143.286 17.2267 143.37 17.5594L142.715 17.7079C142.848 17.3587 142.978 17.0095 143.106 16.6603C143.234 16.3111 143.353 15.9618 143.472 15.6126L146.925 6.14827H150L144.555 19.2615L142.312 25.0055H139.515L139.512 25Z" fill="white"/>
</g>
<defs>
<clipPath id="clip0_220_4886">
<rect width="150" height="25" fill="white"/>
</clipPath>
</defs>
</svg>
