<svg width="187" height="30" viewBox="0 0 187 30" fill="none" xmlns="http://www.w3.org/2000/svg">
<g clip-path="url(#clip0_56_1286)">
<mask id="mask0_56_1286" style="mask-type:luminance" maskUnits="userSpaceOnUse" x="0" y="-1" width="50" height="31">
<path d="M0 -0.461426H49.3349V29.5386H0V-0.461426Z" fill="white"/>
</mask>
<g mask="url(#mask0_56_1286)">
<path fill-rule="evenodd" clip-rule="evenodd" d="M45.9017 1.24497C46.4994 2.34265 47.0155 3.47693 47.4467 4.65444C47.8778 5.82863 48.2241 7.0261 48.4821 8.25351C48.7402 9.48092 48.91 10.7183 48.9884 11.9723C49.0668 13.223 49.0537 14.4737 48.9525 15.7244C48.8479 16.9751 48.6552 18.2092 48.3743 19.4299C48.0902 20.6507 47.7211 21.8448 47.2638 23.009C46.8097 24.1732 46.2708 25.3009 45.6535 26.3819C45.0329 27.4663 44.3404 28.5008 43.5695 29.4787H30.2102L34.3225 22.0743H28.884L35.2959 10.5686H40.767L45.9017 1.25828V1.24497ZM19.5161 29.4787H5.89546C5.11153 28.5041 4.40274 27.4763 3.77233 26.3919C3.14192 25.3075 2.59318 24.1832 2.12936 23.0157C1.66553 21.8481 1.28664 20.6507 0.999199 19.4233C0.71176 18.1992 0.51578 16.9585 0.411257 15.7044C0.306734 14.4471 0.293668 13.1931 0.375327 11.9357C0.453719 10.6784 0.626836 9.43435 0.89141 8.20361C1.15598 6.97288 1.51202 5.76876 1.95297 4.59124C2.39393 3.41373 2.92308 2.27945 3.53062 1.18177L12.3694 16.8121L22.1096 -0.461426H36.4424L19.5227 29.4687L19.5161 29.4787Z" fill="#000E9C"/>
</g>
<path d="M57.1611 15.5815C57.1611 7.59174 61.071 3.75317 67.4893 3.75317C73.9077 3.75317 77.8077 7.59174 77.8077 15.5815C77.8077 23.5713 73.875 27.3667 67.4893 27.3667C61.1003 27.3667 57.1611 23.4948 57.1611 15.5815ZM59.4802 15.5815C59.4802 22.151 62.4232 25.2777 67.4893 25.2777C72.5554 25.2777 75.4886 22.151 75.4886 15.5815C75.4886 9.0154 72.5489 5.8421 67.4893 5.8421C62.4265 5.8421 59.4802 8.97548 59.4802 15.5815Z" fill="#000E9C"/>
<path d="M94.6776 4.69782C94.7593 4.47496 94.8997 4.29534 95.0924 4.15896C95.2851 4.02258 95.5007 3.95605 95.7359 3.95605C95.8862 3.95605 96.0299 3.98267 96.1671 4.04254C96.3042 4.09909 96.4284 4.18224 96.5329 4.29201C96.6374 4.39845 96.7191 4.52485 96.7746 4.66456C96.8301 4.80426 96.8595 4.95395 96.8563 5.10363C96.853 5.2766 96.8171 5.44624 96.7583 5.6059L89.017 26.3887C88.9452 26.6215 88.8112 26.8111 88.6153 26.9575C88.4193 27.1005 88.2037 27.1737 87.962 27.1737C87.7203 27.1737 87.5014 27.1005 87.3087 26.9575C87.1127 26.8111 86.9788 26.6215 86.9037 26.3887L79.1657 5.6059C79.1036 5.44624 79.071 5.2766 79.0645 5.10363C79.0645 4.95395 79.0906 4.80426 79.1461 4.66456C79.2049 4.52485 79.2833 4.39845 79.3911 4.29201C79.4956 4.18224 79.6165 4.09909 79.7569 4.04254C79.8941 3.98267 80.0378 3.95605 80.1881 3.95605C80.4233 3.95605 80.6356 4.02258 80.8315 4.15896C81.0243 4.29534 81.1614 4.47496 81.2464 4.69782L87.9587 22.8229L94.6776 4.69782Z" fill="#000E9C"/>
<path d="M101.557 16.3165V26.0227C101.567 26.179 101.547 26.3354 101.495 26.4851C101.443 26.6381 101.364 26.7711 101.26 26.8876C101.152 27.004 101.028 27.0971 100.884 27.1603C100.737 27.2235 100.587 27.2568 100.43 27.2568C100.273 27.2568 100.123 27.2235 99.9795 27.1603C99.8358 27.0971 99.7117 27.004 99.6039 26.8876C99.4993 26.7711 99.4177 26.6381 99.3687 26.4851C99.3164 26.3354 99.2968 26.179 99.3066 26.0227V5.08025C99.2968 4.92059 99.3164 4.76425 99.3687 4.61457C99.4177 4.46489 99.4993 4.32851 99.6039 4.21209C99.7117 4.09566 99.8358 4.00585 99.9795 3.94265C100.123 3.87613 100.273 3.84619 100.43 3.84619C100.587 3.84619 100.737 3.87613 100.884 3.94265C101.028 4.00585 101.152 4.09566 101.26 4.21209C101.364 4.32851 101.443 4.46489 101.495 4.61457C101.547 4.76425 101.567 4.92059 101.557 5.08025V14.2309H113.074V5.10354C113.061 4.94387 113.081 4.79086 113.133 4.63785C113.185 4.48817 113.264 4.35512 113.372 4.2387C113.476 4.12228 113.603 4.02914 113.747 3.96594C113.891 3.90274 114.041 3.86948 114.198 3.86948C114.355 3.86948 114.505 3.90274 114.649 3.96594C114.792 4.02914 114.917 4.12228 115.024 4.2387C115.132 4.35512 115.21 4.48817 115.263 4.63785C115.315 4.79086 115.335 4.94387 115.322 5.10354V26.046C115.335 26.2057 115.315 26.362 115.263 26.5117C115.21 26.6614 115.132 26.7977 115.024 26.9142C114.917 27.0306 114.792 27.1204 114.649 27.1836C114.505 27.2501 114.355 27.2801 114.198 27.2801C114.041 27.2801 113.891 27.2501 113.747 27.1836C113.603 27.1204 113.476 27.0306 113.372 26.9142C113.264 26.7977 113.185 26.6614 113.133 26.5117C113.081 26.362 113.061 26.2057 113.074 26.046V16.3165H101.557Z" fill="#000E9C"/>
<path d="M125.941 11.1344C126.921 11.0911 127.862 11.2741 128.756 11.6832C129.651 12.0924 130.413 12.6811 131.033 13.4561C131.187 13.6391 131.262 13.852 131.265 14.0915C131.265 14.2212 131.242 14.3476 131.196 14.4673C131.147 14.5904 131.079 14.6969 130.987 14.7867C130.896 14.8798 130.791 14.9497 130.674 14.9995C130.556 15.0461 130.432 15.0694 130.305 15.0694C129.972 15.0694 129.707 14.9363 129.511 14.6636C129.077 14.1247 128.541 13.7189 127.911 13.4428C127.283 13.1701 126.624 13.057 125.941 13.1069C122.893 13.1069 121.273 15.0927 121.273 19.2373C121.273 23.3819 122.893 25.4009 125.941 25.4009C127.391 25.3843 128.668 24.902 129.776 23.954C129.955 23.7976 130.161 23.7178 130.396 23.7178C130.524 23.7178 130.648 23.7411 130.765 23.791C130.883 23.8409 130.987 23.9141 131.076 24.0039C131.167 24.097 131.236 24.2001 131.285 24.3199C131.334 24.4396 131.357 24.566 131.357 24.6957C131.353 25.0483 131.21 25.3277 130.925 25.534C130.233 26.1327 129.455 26.5917 128.596 26.9044C127.737 27.2204 126.852 27.3701 125.941 27.3535C121.672 27.3535 119.124 24.7589 119.124 19.2373C119.124 13.7156 121.672 11.1344 125.941 11.1344Z" fill="#000E9C"/>
<path d="M136.491 3.98919V23.2618C136.491 24.6057 136.922 25.1645 137.814 25.1645C137.951 25.1545 138.085 25.1711 138.219 25.2177C138.35 25.2643 138.467 25.3341 138.569 25.4306C138.67 25.5271 138.748 25.6402 138.804 25.7699C138.859 25.8996 138.889 26.036 138.889 26.1757C138.889 26.3187 138.859 26.4551 138.804 26.5848C138.748 26.7146 138.67 26.8276 138.569 26.9241C138.467 27.0172 138.35 27.0904 138.219 27.137C138.085 27.1836 137.951 27.2002 137.814 27.1902C135.599 27.1902 134.375 25.8364 134.375 23.2485V3.98919C134.378 3.84616 134.407 3.70978 134.463 3.58006C134.518 3.45033 134.593 3.33724 134.691 3.23745C134.789 3.13766 134.904 3.05783 135.031 3.00461C135.158 2.94806 135.292 2.91812 135.433 2.91479C135.573 2.91479 135.707 2.9414 135.838 2.99795C135.965 3.05117 136.08 3.12768 136.181 3.22747C136.279 3.33058 136.354 3.44368 136.409 3.57673C136.465 3.70978 136.491 3.84616 136.491 3.98919Z" fill="#000E9C"/>
<path d="M154.521 19.2172C154.521 24.7389 151.872 27.3334 147.57 27.3334C143.271 27.3334 140.629 24.7389 140.629 19.2172C140.629 13.6989 143.307 11.1343 147.57 11.1343C151.832 11.1343 154.521 13.6922 154.521 19.2172ZM152.368 19.2172C152.368 14.9728 150.617 13.0868 147.57 13.0868C144.522 13.0868 142.778 14.9928 142.778 19.2172C142.778 23.445 144.529 25.3809 147.57 25.3809C150.611 25.3809 152.394 23.5281 152.394 19.2172H152.368Z" fill="#000E9C"/>
<path d="M159.616 12.4144V21.2025C159.616 23.3946 160.309 25.2773 163.65 25.2773C166.989 25.2773 167.688 23.3746 167.688 21.2025V12.4144C167.688 12.2681 167.717 12.1317 167.772 11.9953C167.831 11.8623 167.91 11.7458 168.011 11.6461C168.115 11.5429 168.233 11.4664 168.364 11.4132C168.498 11.36 168.635 11.3334 168.779 11.3367C168.916 11.3367 169.05 11.3666 169.177 11.4232C169.304 11.4764 169.415 11.5562 169.513 11.656C169.608 11.7591 169.683 11.8756 169.732 12.0053C169.785 12.1383 169.807 12.2747 169.804 12.4144V21.2025C169.804 24.3758 168.779 27.3329 163.65 27.3329C158.519 27.3329 157.5 24.4025 157.5 21.2025V12.4144C157.497 12.2714 157.519 12.1317 157.575 11.9986C157.627 11.8656 157.702 11.7492 157.804 11.6461C157.902 11.5429 158.019 11.4664 158.15 11.4132C158.28 11.36 158.418 11.3334 158.558 11.3367C158.699 11.3367 158.832 11.3633 158.963 11.4199C159.091 11.4764 159.205 11.5529 159.306 11.6527C159.404 11.7558 159.479 11.8722 159.535 12.002C159.59 12.135 159.616 12.2714 159.616 12.4144Z" fill="#000E9C"/>
<path d="M183.928 13.323V3.98935C183.928 3.84631 183.954 3.70661 184.01 3.57688C184.062 3.44383 184.141 3.32741 184.239 3.22762C184.337 3.12783 184.454 3.048 184.582 2.99478C184.712 2.94156 184.846 2.91162 184.987 2.91162C185.127 2.91162 185.261 2.94156 185.392 2.99478C185.519 3.048 185.633 3.12783 185.735 3.22762C185.833 3.32741 185.911 3.44383 185.963 3.57688C186.019 3.70661 186.045 3.84631 186.045 3.98935V20.724C186.045 25.1646 183.334 27.36 179.564 27.36C175.295 27.36 172.78 24.7655 172.78 19.2438C172.78 13.7221 175.165 11.1575 179.427 11.1575C180.303 11.1409 181.136 11.3239 181.926 11.7064C182.717 12.0856 183.383 12.6244 183.928 13.323ZM183.928 16.0505C183.928 16.0505 182.681 13.0868 179.564 13.0868C176.448 13.0868 174.897 15.0759 174.897 19.2172C174.897 23.3618 176.517 25.3808 179.564 25.3808C182.109 25.3808 183.928 23.9006 183.928 20.6974V16.0505Z" fill="#000E9C"/>
</g>
<defs>
<clipPath id="clip0_56_1286">
<rect width="186.176" height="30" fill="white"/>
</clipPath>
</defs>
</svg>
