<svg width="40" height="40" viewBox="0 0 40 40" fill="none" xmlns="http://www.w3.org/2000/svg">
<path d="M34 25.75C34 29.3438 28.9583 32 28.5 32C28.0417 32 23 29.3438 23 25.75C23 23.25 24.5278 22 26.0556 22C27.5833 22 28.5 22.9375 28.5 22.9375C28.5 22.9375 29.4167 22 30.9444 22C32.4722 22 34 23.25 34 25.75Z" stroke="#0454F2" stroke-width="2" stroke-linejoin="round"/>
<path d="M24.2869 11.0556V7.83333C24.2869 5.16396 22.2035 3 19.6335 3C17.0635 3 14.9801 5.16396 14.9801 7.83333V11.0556M18.858 32H8L11.1023 11.0556H28.1648L29 16.6944" stroke="black" stroke-width="2" stroke-linecap="round" stroke-linejoin="round"/>
</svg>
