<svg width="24" height="24" viewBox="0 0 24 24" fill="none" xmlns="http://www.w3.org/2000/svg">
<path d="M7.75456 9.21773C8.49672 10.6866 9.48136 12.0644 10.7085 13.2915C11.9356 14.5186 13.3134 15.5033 14.7823 16.2454L16.2976 14.7301C16.6214 14.4063 17.1238 14.3438 17.517 14.5784L20.1472 16.1475C20.7069 16.4813 20.8028 17.2526 20.342 17.7134L17.6212 20.4342C17.1163 20.9391 16.3781 21.1441 15.7002 20.9201C14.373 20.4816 13.0829 19.8994 11.8541 19.1737C10.4419 18.3396 9.11072 17.3159 7.89739 16.1026C6.68406 14.8893 5.66038 13.5581 4.82634 12.1459C4.1006 10.9171 3.51845 9.62698 3.07991 8.29978C2.85591 7.62189 3.06092 6.88365 3.56575 6.37882L6.28661 3.65797C6.74737 3.19721 7.51867 3.29315 7.85251 3.85275L9.42159 6.48296C9.65619 6.87622 9.5937 7.37858 9.2699 7.70239L7.75456 9.21773Z" stroke="#1F2023" stroke-width="1.5" stroke-linecap="round" stroke-linejoin="round"/>
</svg>
