<svg width="40" height="40" viewBox="0 0 40 40" fill="none" xmlns="http://www.w3.org/2000/svg">
<path d="M17.4999 11.6666C17.4999 14.428 15.2614 16.6666 12.4999 16.6666C9.73851 16.6666 7.49993 14.428 7.49993 11.6666C7.49993 8.9052 9.73851 6.66663 12.4999 6.66663C15.2614 6.66663 17.4999 8.9052 17.4999 11.6666Z" stroke="black" stroke-width="2" stroke-linecap="round" stroke-linejoin="round"/>
<path d="M2.70814 31.55C2.55004 32.5036 3.3216 33.3333 4.28822 33.3333H20.7116C21.6783 33.3333 22.4498 32.5036 22.2917 31.55C20.107 18.3722 4.89286 18.3722 2.70814 31.55Z" stroke="black" stroke-width="2" stroke-linecap="round" stroke-linejoin="round"/>
<path d="M25.457 21.9118C30.3995 20.7102 36.0298 23.9248 37.2924 31.5555C37.4502 32.5091 36.678 33.3333 35.7114 33.3333H29.1666M32.5 11.6666C32.5 14.428 30.2614 16.6666 27.5 16.6666C24.7386 16.6666 22.5 14.428 22.5 11.6666C22.5 8.9052 24.7386 6.66663 27.5 6.66663C30.2614 6.66663 32.5 8.9052 32.5 11.6666Z" stroke="#0454F2" stroke-width="2" stroke-linecap="round" stroke-linejoin="round"/>
</svg>
