<svg width="150" height="30" viewBox="0 0 150 30" fill="none" xmlns="http://www.w3.org/2000/svg">
<g clip-path="url(#clip0_56_1562)">
<path fill-rule="evenodd" clip-rule="evenodd" d="M49.621 3.55591H12.9966C10.6881 3.55591 8.79464 5.42875 8.82058 7.71207V21.5403C8.82058 23.8236 10.6881 25.6964 13.0225 25.6964H30.3491L38.2861 30.0578L36.4964 25.6964H49.621C51.9295 25.6964 53.8232 23.8492 53.8232 21.5403V7.71207C53.7971 5.40309 51.9295 3.55591 49.621 3.55591ZM12.2185 6.76282C11.6997 6.78848 11.3106 6.99372 11.0512 7.32724C10.7919 7.66075 10.714 8.07123 10.7659 8.55869C11.8553 15.383 12.8669 19.9753 13.8007 22.3612C14.1638 23.2335 14.5788 23.644 15.0976 23.6184C15.8757 23.567 16.7835 22.5152 17.8729 20.4628C18.4436 19.3082 19.3254 17.5637 20.5186 15.2291C21.5043 18.6669 22.8789 21.2581 24.5909 22.977C25.0577 23.4644 25.5765 23.6953 26.0434 23.644C26.4584 23.6184 26.7956 23.3874 27.029 22.977C27.2106 22.6434 27.2884 22.233 27.2625 21.7712C27.1587 20.1036 27.3144 17.7946 27.7812 14.8442C28.2481 11.7913 28.8447 9.58492 29.571 8.27649C29.7266 7.99425 29.7784 7.73772 29.7525 7.4042C29.7266 6.99372 29.5191 6.63454 29.1819 6.37799C28.8447 6.12144 28.4556 5.96751 28.0147 6.01882C27.47 6.04447 27.0809 6.30102 26.7956 6.81413C25.6543 8.86654 24.8503 12.2017 24.3574 16.8197C23.6571 15.0751 23.0605 13.0227 22.6196 10.6111C22.4121 9.53361 21.9193 9.02049 21.1152 9.0718C20.5705 9.09746 20.1036 9.48229 19.7405 10.175L15.7201 17.7689C15.0457 15.1265 14.4232 11.9195 13.8526 8.09688C13.6969 7.122 13.1522 6.68586 12.2185 6.76282ZM47.6757 8.07123C48.9725 8.35346 49.9582 9.04615 50.6066 10.175C51.2032 11.1499 51.4885 12.33 51.4885 13.7667C51.4885 15.6396 51.0216 17.3584 50.062 18.9234C48.9466 20.745 47.52 21.6429 45.7303 21.6429C45.4191 21.6429 45.0819 21.6172 44.7447 21.5403C43.4478 21.2581 42.4621 20.5654 41.8137 19.4365C41.2171 18.436 40.9318 17.2302 40.9318 15.8448C40.9318 13.972 41.3987 12.2531 42.3584 10.7137C43.4737 8.8922 44.9262 7.9943 46.69 7.9943C46.9753 7.96864 47.3126 7.9943 47.6757 8.07123ZM46.8975 17.8972C47.5719 17.3071 48.0388 16.4092 48.2982 15.2034C48.376 14.7929 48.4279 14.3311 48.4279 13.8693C48.4279 13.3306 48.3241 12.7662 48.0907 12.2017C47.8053 11.4834 47.4422 11.0986 47.0013 11.0216C46.3269 10.8933 45.7044 11.2525 45.0819 12.1504C44.589 12.8431 44.2778 13.5615 44.0962 14.3055C43.9925 14.716 43.9665 15.1778 43.9665 15.6396C43.9665 16.1783 44.0703 16.7427 44.3037 17.3071C44.589 18.0255 44.9522 18.4103 45.3931 18.4873C45.86 18.5899 46.3528 18.3847 46.8975 17.8972ZM39.0643 10.175C38.3899 9.02049 37.4042 8.32781 36.1333 8.07123C35.7961 7.9943 35.4589 7.96864 35.1476 7.96864C33.3839 7.96864 31.9572 8.86654 30.816 10.6881C29.8563 12.2274 29.3894 13.9463 29.3894 15.8191C29.3894 17.2302 29.6747 18.4103 30.2713 19.4109C30.9457 20.5654 31.9054 21.2581 33.2023 21.5146C33.5395 21.5916 33.8766 21.6172 34.1879 21.6172C35.9776 21.6172 37.4042 20.7193 38.5196 18.8978C39.4793 17.3328 39.9462 15.6139 39.9462 13.741C39.9462 12.33 39.6608 11.1499 39.0643 10.175ZM36.7558 15.2034C36.4964 16.4092 36.0295 17.3071 35.3551 17.8972C34.8104 18.359 34.3176 18.5642 33.8766 18.4873C33.4357 18.3847 33.0726 18.0255 32.7873 17.3071C32.5538 16.7427 32.4501 16.1783 32.4501 15.6396C32.4501 15.1778 32.476 14.7416 32.5798 14.3055C32.7354 13.5615 33.0466 12.8431 33.5654 12.1504C34.162 11.2525 34.8104 10.8933 35.4848 11.0216C35.9257 11.1242 36.2889 11.4834 36.5742 12.2017C36.8076 12.7662 36.9114 13.3306 36.9114 13.8693C36.8855 14.3311 36.8595 14.7929 36.7558 15.2034Z" fill="#F2F2F2"/>
<path fill-rule="evenodd" clip-rule="evenodd" d="M58.466 10.021C57.2208 11.2268 56.6245 12.7405 56.6245 14.6133C56.6245 16.5888 57.2208 18.2051 58.4399 19.4365C59.6591 20.668 61.2412 21.2837 63.2124 21.2837C63.783 21.2837 64.4315 21.1811 65.1319 21.0015V18.0512C64.4838 18.2307 63.9388 18.3333 63.4461 18.3333C62.4603 18.3333 61.7082 17.9998 61.1115 17.3585C60.5152 16.6914 60.2297 15.8191 60.2297 14.716C60.2297 13.6898 60.5152 12.8175 61.0858 12.1761C61.6821 11.509 62.3824 11.1755 63.2646 11.1755C63.8353 11.1755 64.4315 11.2782 65.1062 11.4577V8.50735C64.5095 8.35345 63.8091 8.27647 63.1088 8.27647C61.2412 8.22516 59.6852 8.81525 58.466 10.021ZM71.2275 8.22516C69.5413 8.22516 68.2186 8.78959 67.2589 9.89276C66.2992 10.9959 65.8322 12.5609 65.8322 14.562C65.8322 16.7171 66.2992 18.3847 67.2589 19.5391C68.1925 20.6936 69.5675 21.2581 71.3829 21.2581C73.1208 21.2581 74.4697 20.668 75.4033 19.5391C76.3373 18.3847 76.83 16.7684 76.83 14.6903C76.83 12.6122 76.363 11.0216 75.4033 9.89276C74.3917 8.76393 73.0172 8.22516 71.2275 8.22516ZM72.6799 17.6663C72.3426 18.1794 71.8499 18.436 71.2275 18.436C70.6308 18.436 70.1899 18.1794 69.8787 17.6663C69.5675 17.1532 69.4116 16.127 69.4116 14.5877C69.4116 12.2017 70.0084 11.0216 71.2532 11.0216C72.5502 11.0216 73.1987 12.2274 73.1987 14.639C73.1987 16.1526 73.0172 17.1532 72.6799 17.6663ZM85.9084 8.55867L85.2338 11.3294C85.0784 12.0478 84.8969 12.7662 84.7672 13.5102L84.4037 15.4343C84.0669 13.5102 83.5737 11.2268 82.9774 8.53301H78.7233L77.1155 20.9246H80.3059L81.1616 12.3813L83.3404 20.9246H85.6229L87.7238 12.407L88.6317 20.9246H91.9779L90.2918 8.53301H85.9084V8.55867ZM101.212 8.55867L100.538 11.3294C100.382 12.0478 100.2 12.7662 100.07 13.5102L99.7075 15.4343C99.3702 13.5102 98.8775 11.2268 98.2807 8.53301H94.0271L92.4188 20.9246H95.6092L96.4649 12.3813L98.6437 20.9246H100.927L103.001 12.407L103.909 20.9246H107.255L105.569 8.53301H101.212V8.55867ZM111.639 16.05H114.648V13.4845H111.639V11.2012H115.089V8.55867H108.241V20.9502H115.089V18.3077H111.613V16.05H111.639ZM124.634 14.1002C124.971 13.5358 125.179 12.9457 125.179 12.3557C125.179 11.2012 124.712 10.2519 123.804 9.58491C122.896 8.91784 121.625 8.55867 120.043 8.55867H116.1V20.9502H119.472V15.306H119.524L122.273 20.9502H125.853L123.129 15.3573C123.778 15.0751 124.271 14.6646 124.634 14.1002ZM119.446 13.895V10.9446C120.25 10.9703 120.821 11.0986 121.184 11.3551C121.521 11.6117 121.703 12.0222 121.703 12.5866C121.677 13.4332 120.924 13.8693 119.446 13.895ZM127.15 10.021C125.931 11.2268 125.308 12.7405 125.308 14.6133C125.308 16.5888 125.905 18.2051 127.124 19.4365C128.343 20.668 129.925 21.2837 131.896 21.2837C132.467 21.2837 133.115 21.1811 133.816 21.0015V18.0512C133.167 18.2307 132.623 18.3333 132.13 18.3333C131.144 18.3333 130.392 17.9998 129.795 17.3585C129.199 16.6914 128.913 15.8191 128.913 14.716C128.913 13.6898 129.199 12.8175 129.77 12.1761C130.366 11.509 131.066 11.1755 131.948 11.1755C132.519 11.1755 133.115 11.2782 133.79 11.4577V8.50735C133.193 8.35345 132.493 8.27647 131.793 8.27647C129.951 8.22516 128.395 8.81525 127.15 10.021ZM138.122 18.282V16.0244H141.13V13.4588H138.122V11.1755H141.597V8.53301H134.75V20.9246H141.623V18.282H138.122Z" fill="#F2F2F2"/>
</g>
<defs>
<clipPath id="clip0_56_1562">
<rect width="150" height="30" fill="white"/>
</clipPath>
</defs>
</svg>
